<svg xmlns="http://www.w3.org/2000/svg" xmlns:xlink="http://www.w3.org/1999/xlink" id="body_5" preserveAspectRatio="xMinYMin meet" viewBox="0 0 793 1121"><defs><clipPath id="1"><path id="" clip-rule="evenodd" transform="matrix(1 0 0 1 0 0)" d="M0 841L0 -0.9000244L0 -0.9000244L595.3 -0.9000244L595.3 -0.9000244L595.3 841L595.3 841L0 841z" /></clipPath><clipPath id="2"><path id="" clip-rule="evenodd" transform="matrix(1 0 0 1 0 0)" d="M0 -0.9000244L595.3 -0.9000244L595.3 -0.9000244L595.3 841L595.3 841L0 841z" /></clipPath><clipPath id="3"><path id="" clip-rule="evenodd" transform="matrix(1 0 0 1 0 0)" d="M0 -0.9000244L595.3 -0.9000244L595.3 -0.9000244L595.3 841L595.3 841L0 841z" /></clipPath><clipPath id="4"><path id="" clip-rule="evenodd" transform="matrix(1 0 0 1 0 0)" d="M261.55 780.65L333.7 780.65L333.7 780.65L333.7 792.3L333.7 792.3L261.55 792.3z" /></clipPath><clipPath id="5"><path id="" clip-rule="evenodd" transform="matrix(1 0 0 1 0 0)" d="M0 -0.9000244L595.3 -0.9000244L595.3 -0.9000244L595.3 841L595.3 841L0 841z" /></clipPath><clipPath id="6"><path id="" clip-rule="evenodd" transform="matrix(1 0 0 1 0 0)" d="M0 -0.9000244L595.3 -0.9000244L595.3 -0.9000244L595.3 841L595.3 841L0 841z" /></clipPath><clipPath id="7"><path id="" clip-rule="evenodd" transform="matrix(1 0 0 1 0 0)" d="M44.6 410.05L548.85 410.05L548.85 410.05L548.85 573.75L548.85 573.75L44.6 573.75z" /></clipPath><clipPath id="8"><path id="" clip-rule="evenodd" transform="matrix(1 0 0 1 0 0)" d="M55.2 411.65L112.9 411.65L112.9 411.65L112.9 458.25L112.9 458.25L55.2 458.25z" /></clipPath><clipPath id="9"><path id="" clip-rule="evenodd" transform="matrix(1 0 0 1 0 0)" d="M44.6 410.05L548.85 410.05L548.85 410.05L548.85 573.75L548.85 573.75L44.6 573.75z" /></clipPath><clipPath id="10"><path id="" clip-rule="evenodd" transform="matrix(1 0 0 1 0 0)" d="M112.85 411.65L255.4 411.65L255.4 411.65L255.4 458.25L255.4 458.25L112.85 458.25z" /></clipPath><clipPath id="11"><path id="" clip-rule="evenodd" transform="matrix(1 0 0 1 0 0)" d="M44.6 410.05L548.85 410.05L548.85 410.05L548.85 573.75L548.85 573.75L44.6 573.75z" /></clipPath><clipPath id="12"><path id="" clip-rule="evenodd" transform="matrix(1 0 0 1 0 0)" d="M255.35 411.65L364.9 411.65L364.9 411.65L364.9 458.25L364.9 458.25L255.35 458.25z" /></clipPath><clipPath id="13"><path id="" clip-rule="evenodd" transform="matrix(1 0 0 1 0 0)" d="M44.6 410.05L548.85 410.05L548.85 410.05L548.85 573.75L548.85 573.75L44.6 573.75z" /></clipPath><clipPath id="14"><path id="" clip-rule="evenodd" transform="matrix(1 0 0 1 0 0)" d="M364.85 411.65L454.15 411.65L454.15 411.65L454.15 458.25L454.15 458.25L364.85 458.25z" /></clipPath><clipPath id="15"><path id="" clip-rule="evenodd" transform="matrix(1 0 0 1 0 0)" d="M44.6 410.05L548.85 410.05L548.85 410.05L548.85 573.75L548.85 573.75L44.6 573.75z" /></clipPath><clipPath id="16"><path id="" clip-rule="evenodd" transform="matrix(1 0 0 1 0 0)" d="M454.1 411.65L538.3 411.65L538.3 411.65L538.3 458.25L538.3 458.25L454.1 458.25z" /></clipPath><clipPath id="17"><path id="" clip-rule="evenodd" transform="matrix(1 0 0 1 0 0)" d="M44.6 410.05L548.85 410.05L548.85 410.05L548.85 573.75L548.85 573.75L44.6 573.75z" /></clipPath><clipPath id="18"><path id="" clip-rule="evenodd" transform="matrix(1 0 0 1 0 0)" d="M55.2 458.25L112.9 458.25L112.9 458.25L112.9 514.95L112.9 514.95L55.2 514.95z" /></clipPath><clipPath id="19"><path id="" clip-rule="evenodd" transform="matrix(1 0 0 1 0 0)" d="M44.6 410.05L548.85 410.05L548.85 410.05L548.85 573.75L548.85 573.75L44.6 573.75z" /></clipPath><clipPath id="20"><path id="" clip-rule="evenodd" transform="matrix(1 0 0 1 0 0)" d="M112.85 458.25L255.4 458.25L255.4 458.25L255.4 514.95L255.4 514.95L112.85 514.95z" /></clipPath><clipPath id="21"><path id="" clip-rule="evenodd" transform="matrix(1 0 0 1 0 0)" d="M44.6 410.05L548.85 410.05L548.85 410.05L548.85 573.75L548.85 573.75L44.6 573.75z" /></clipPath><clipPath id="22"><path id="" clip-rule="evenodd" transform="matrix(1 0 0 1 0 0)" d="M255.35 458.25L364.9 458.25L364.9 458.25L364.9 514.95L364.9 514.95L255.35 514.95z" /></clipPath><clipPath id="23"><path id="" clip-rule="evenodd" transform="matrix(1 0 0 1 0 0)" d="M44.6 410.05L548.85 410.05L548.85 410.05L548.85 573.75L548.85 573.75L44.6 573.75z" /></clipPath><clipPath id="24"><path id="" clip-rule="evenodd" transform="matrix(1 0 0 1 0 0)" d="M364.85 458.25L454.15 458.25L454.15 458.25L454.15 514.95L454.15 514.95L364.85 514.95z" /></clipPath><clipPath id="25"><path id="" clip-rule="evenodd" transform="matrix(1 0 0 1 0 0)" d="M44.6 410.05L548.85 410.05L548.85 410.05L548.85 573.75L548.85 573.75L44.6 573.75z" /></clipPath><clipPath id="26"><path id="" clip-rule="evenodd" transform="matrix(1 0 0 1 0 0)" d="M454.1 458.25L538.3 458.25L538.3 458.25L538.3 514.95L538.3 514.95L454.1 514.95z" /></clipPath><clipPath id="27"><path id="" clip-rule="evenodd" transform="matrix(1 0 0 1 0 0)" d="M44.6 410.05L548.85 410.05L548.85 410.05L548.85 573.75L548.85 573.75L44.6 573.75z" /></clipPath><clipPath id="28"><path id="" clip-rule="evenodd" transform="matrix(1 0 0 1 0 0)" d="M55.2 514.95L112.9 514.95L112.9 514.95L112.9 572.2L112.9 572.2L55.2 572.2z" /></clipPath><clipPath id="29"><path id="" clip-rule="evenodd" transform="matrix(1 0 0 1 0 0)" d="M44.6 410.05L548.85 410.05L548.85 410.05L548.85 573.75L548.85 573.75L44.6 573.75z" /></clipPath><clipPath id="30"><path id="" clip-rule="evenodd" transform="matrix(1 0 0 1 0 0)" d="M112.85 514.95L255.4 514.95L255.4 514.95L255.4 572.2L255.4 572.2L112.85 572.2z" /></clipPath><clipPath id="31"><path id="" clip-rule="evenodd" transform="matrix(1 0 0 1 0 0)" d="M112.85 515.45L255.4 515.45L255.4 515.45L255.4 572.7L255.4 572.7L112.85 572.7z" /></clipPath><clipPath id="32"><path id="" clip-rule="evenodd" transform="matrix(1 0 0 1 0 0)" d="M112.85 514.95L255.4 514.95L255.4 514.95L255.4 572.2L255.4 572.2L112.85 572.2z" /></clipPath><clipPath id="33"><path id="" clip-rule="evenodd" transform="matrix(1 0 0 1 0 0)" d="M44.6 410.05L548.85 410.05L548.85 410.05L548.85 573.75L548.85 573.75L44.6 573.75z" /></clipPath><clipPath id="34"><path id="" clip-rule="evenodd" transform="matrix(1 0 0 1 0 0)" d="M255.35 514.95L364.9 514.95L364.9 514.95L364.9 572.2L364.9 572.2L255.35 572.2z" /></clipPath><clipPath id="35"><path id="" clip-rule="evenodd" transform="matrix(1 0 0 1 0 0)" d="M44.6 410.05L548.85 410.05L548.85 410.05L548.85 573.75L548.85 573.75L44.6 573.75z" /></clipPath><clipPath id="36"><path id="" clip-rule="evenodd" transform="matrix(1 0 0 1 0 0)" d="M364.85 514.95L454.15 514.95L454.15 514.95L454.15 572.2L454.15 572.2L364.85 572.2z" /></clipPath><clipPath id="37"><path id="" clip-rule="evenodd" transform="matrix(1 0 0 1 0 0)" d="M44.6 410.05L548.85 410.05L548.85 410.05L548.85 573.75L548.85 573.75L44.6 573.75z" /></clipPath><clipPath id="38"><path id="" clip-rule="evenodd" transform="matrix(1 0 0 1 0 0)" d="M454.1 514.95L538.3 514.95L538.3 514.95L538.3 572.2L538.3 572.2L454.1 572.2z" /></clipPath><clipPath id="39"><path id="" clip-rule="evenodd" transform="matrix(1 0 0 1 0 0)" d="M44.6 410.05L548.85 410.05L548.85 410.05L548.85 573.75L548.85 573.75L44.6 573.75z" /></clipPath></defs><g transform="matrix(1.333333 0 0 1.333333 0 0)"><g clip-path="url(#1)"><g clip-path="url(#2)"><path id="1" transform="matrix(1 0 0 -1 0 841)" d="M213.36 373.18L215.64 375.46L215.64 375.46L215.52 382.9L215.52 382.9L227.64 383.98L227.64 383.98L227.88 379.78L227.88 379.78L239.76 367.78L239.76 367.78L239.28 370.9L239.28 370.9L247.2 369.94L247.2 369.94L247.68 366.1L247.68 366.1L236.88 355.18L236.88 355.18L238.2 354.82L238.2 354.82L239.64 354.46L239.64 354.46L240.96 354.22L240.96 354.22L242.28 353.86L242.28 353.86L243.72 353.62L243.72 353.62L245.04 353.5L245.04 353.5L246.48 353.26L246.48 353.26L247.8 353.26L247.8 353.26L249.48 353.14L249.48 353.14L251.16 353.14L251.16 353.14L252.84 353.14L252.84 353.14L254.52 353.38L254.52 353.38L256.32 353.62L256.32 353.62L258.12 353.98L258.12 353.98L259.92 354.46L259.92 354.46L261.84 354.94L261.84 354.94L266.04 341.86L266.04 341.86L264.96 341.74L264.96 341.74L264 341.5L264 341.5L263.04 341.38L263.04 341.38L261.96 341.38L261.96 341.38L260.88 341.38L260.88 341.38L259.8 341.38L259.8 341.38L258.72 341.38L258.72 341.38L257.64 341.5L257.64 341.5L256.44 341.62L256.44 341.62L255.36 341.74L255.36 341.74L254.16 341.98L254.16 341.98L252.96 342.22L252.96 342.22L251.64 342.46L251.64 342.46L250.44 342.82L250.44 342.82L249.24 343.18L249.24 343.18L247.92 343.54L247.92 343.54L246 344.26L246 344.26L244.2 344.98L244.2 344.98L242.4 345.7L242.4 345.7L240.48 346.66L240.48 346.66L238.68 347.5L238.68 347.5L236.88 348.58L236.88 348.58L234.96 349.66L234.96 349.66L233.16 350.86L233.16 350.86L234 349.54L234 349.54L234.72 348.22L234.72 348.22L235.32 346.9L235.32 346.9L236.04 345.7L236.04 345.7L236.52 344.38L236.52 344.38L237 343.06L237 343.06L237.48 341.74L237.48 341.74L237.96 340.42L237.96 340.42L238.44 338.98L238.44 338.98L238.8 337.42L238.8 337.42L239.16 335.98L239.16 335.98L239.52 334.42L239.52 334.42L239.76 332.98L239.76 332.98L239.88 331.42L239.88 331.42L240.12 329.86L240.12 329.86L240.24 328.3L240.24 328.3L240.24 326.7401L240.24 326.7401L240.24 325.1801L240.24 325.1801L240.12 323.62L240.12 323.62L240 322.06L240 322.06L239.88 320.5L239.88 320.5L239.64 318.82L239.64 318.82L239.4 317.26L239.4 317.26L239.04 315.7L239.04 315.7L233.76 316.78L233.76 316.78L233.64 318.1L233.64 318.1L233.52 319.42L233.52 319.42L233.4 320.7401L233.4 320.7401L233.28 322.06L233.28 322.06L233.04 323.38L233.04 323.38L232.8 324.7L232.8 324.7L232.56 325.9L232.56 325.9L232.2 327.22L232.2 327.22L231.96 328.42L231.96 328.42L231.6 329.7401L231.6 329.7401L231.24 330.94L231.24 330.94L230.88 332.14L230.88 332.14L230.4 333.34L230.4 333.34L229.92 334.54L229.92 334.54L229.44 335.74L229.44 335.74L228.96 336.94L228.96 336.94L228.6 337.78L228.6 337.78L228.24 338.62L228.24 338.62L227.88 339.46L227.88 339.46L227.4 340.3L227.4 340.3L226.92 341.14L226.92 341.14L226.44 341.98L226.44 341.98L225.96 342.82L225.96 342.82L225.36 343.66L225.36 343.66L217.92 336.34L217.92 336.34L212.88 339.22L212.88 339.22L222 348.34L222 348.34L220.68 350.02L220.68 350.02L219.12 351.7L219.12 351.7L217.56 353.38L217.56 353.38L215.88 355.18L215.88 355.18L209.52 361.54L209.52 361.54L203.88 355.9L203.88 355.9L199.08 358.9L199.08 358.9L205.56 365.38L205.56 365.38L196.8 374.26L196.8 374.26L205.68 380.86L205.68 380.86L213.36 373.18M232.92 359.26L220.08 372.1L220.08 372.1L217.2 369.22L217.2 369.22L223.44 362.98L223.44 362.98L225.24 361.18L225.24 361.18L226.8 359.5L226.8 359.5L228.24 357.7L228.24 357.7L229.68 356.02L229.68 356.02L232.92 359.26zM178.2 355.78L186.6 362.38L186.6 362.38L194.76 354.22L194.76 354.22L195.72 357.46L195.72 357.46L198.24 356.74L198.24 356.74L200.64 356.02L200.64 356.02L202.92 355.3L202.92 355.3L205.08 354.58L205.08 354.58L207.12 353.98L207.12 353.98L209.16 353.26L209.16 353.26L210.96 352.54L210.96 352.54L212.64 351.82L212.64 351.82L209.76 342.58L209.76 342.58L207.24 344.38L207.24 344.38L204.6 346.18L204.6 346.18L201.96 347.98L201.96 347.98L199.32 349.66L199.32 349.66L235.68 313.3L235.68 313.3L229.2 304.78L229.2 304.78L178.2 355.78zM181.68 342.46L186.24 345.58L186.24 345.58L192.24 339.58L192.24 339.58L195.72 336.1L195.72 336.1L198.72 333.1L198.72 333.1L201.24 330.34L201.24 330.34L203.4 327.94L203.4 327.94L195.24 325.42L195.24 325.42L194.64 326.38L194.64 326.38L194.04 327.34L194.04 327.34L192.6 329.26L192.6 329.26L190.92 331.42L190.92 331.42L189.12 333.7L189.12 333.7L187.32 335.86L187.32 335.86L185.52 338.02L185.52 338.02L183.72 340.3L183.72 340.3L181.68 342.46z" stroke="none" fill="#C0C0C0" fill-rule="evenodd" fill-opacity="0.2745098" /><path id="2" transform="matrix(1 0 0 -1 0 841)" d="M281.64 413.5L281.52 419.26L281.52 419.26L291.12 419.62L291.12 419.62L291.12 414.94L291.12 414.94L278.76 402.58L278.76 402.58L285.36 395.98L285.36 395.98L295.92 406.66L295.92 406.66L296.28 412.42L296.28 412.42L306.12 412.66L306.12 412.66L306.24 407.38L306.24 407.38L290.16 391.18L290.16 391.18L301.44 379.9L301.44 379.9L294 370.18L294 370.18L281.52 382.66L281.52 382.66L262.44 363.58L262.44 363.58L256.56 367.3L256.56 367.3L276.72 387.46L276.72 387.46L270.12 393.94L270.12 393.94L253.2 377.02L253.2 377.02L247.8 387.34L247.8 387.34L243 396.94L243 396.94L236.04 389.98L236.04 389.98L231 393.22L231 393.22L240.24 402.46L240.24 402.46L237.72 407.74L237.72 407.74L235.32 412.66L235.32 412.66L245.16 419.5L245.16 419.5L249.12 411.34L249.12 411.34L270 432.34L270 432.34L270.24 437.86L270.24 437.86L279.48 438.1L279.48 438.1L279.48 433.42L279.48 433.42L251.76 405.7L251.76 405.7L258.96 390.82L258.96 390.82L266.16 398.02L266.16 398.02L257.4 406.66L257.4 406.66L267.12 414.22L267.12 414.22L274.68 406.66L274.68 406.66L281.64 413.5" stroke="none" fill="#C0C0C0" fill-rule="evenodd" fill-opacity="0.2745098" /><path id="3" transform="matrix(1 0 0 -1 0 841)" d="M298.2 455.26L318.12 475.06L318.12 475.06L314.64 478.54L314.64 478.54L294.84 458.62L294.84 458.62L298.2 455.26M305.64 447.82L325.56 467.74L325.56 467.74L321.96 471.22L321.96 471.22L302.16 451.42L302.16 451.42L305.64 447.82zM336.72 463.06L337.2 469.78L337.2 469.78L350.04 471.22L350.04 471.22L349.8 466.3L349.8 466.3L351.24 464.86L351.24 464.86L352.56 463.42L352.56 463.42L353.88 462.1L353.88 462.1L355.08 460.78L355.08 460.78L356.16 459.58L356.16 459.58L357.24 458.38L357.24 458.38L358.2 457.18L358.2 457.18L359.04 456.1L359.04 456.1L359.76 455.02L359.76 455.02L360.48 453.94L360.48 453.94L361.2 452.98L361.2 452.98L361.68 452.14L361.68 452.14L362.16 451.18L362.16 451.18L362.64 450.46L362.64 450.46L362.88 449.62L362.88 449.62L363.12 448.9L363.12 448.9L363.48 448.18L363.48 448.18L363.72 447.34L363.72 447.34L363.96 446.62L363.96 446.62L364.08 445.78L364.08 445.78L364.08 445.06L364.08 445.06L364.08 444.34L364.08 444.34L363.96 443.5L363.96 443.5L363.84 442.78L363.84 442.78L363.6 442.06L363.6 442.06L363.36 441.34L363.36 441.34L363 440.62L363 440.62L362.64 439.78L362.64 439.78L362.16 439.06L362.16 439.06L361.56 438.34L361.56 438.34L360.96 437.62L360.96 437.62L360.24 436.9L360.24 436.9L357.24 433.9L357.24 433.9L356.76 434.38L356.76 434.38L356.16 434.74L356.16 434.74L355.68 435.1L355.68 435.1L355.08 435.34L355.08 435.34L354.6 435.58L354.6 435.58L354 435.7L354 435.7L353.4 435.7L353.4 435.7L352.8 435.82L352.8 435.82L352.2 435.7L352.2 435.7L351.6 435.7L351.6 435.7L350.88 435.46L350.88 435.46L350.28 435.34L350.28 435.34L349.56 434.98L349.56 434.98L348.84 434.74L348.84 434.74L348.24 434.26L348.24 434.26L347.52 433.9L347.52 433.9L344.28 437.62L344.28 437.62L345.12 438.1L345.12 438.1L345.96 438.7L345.96 438.7L346.8 439.42L346.8 439.42L347.64 440.02L347.64 440.02L348.48 440.74L348.48 440.74L349.32 441.58L349.32 441.58L350.16 442.3L350.16 442.3L351 443.14L351 443.14L351.24 443.38L351.24 443.38L351.36 443.74L351.36 443.74L351.48 443.98L351.48 443.98L351.6 444.34L351.6 444.34L351.72 444.58L351.72 444.58L351.72 444.94L351.72 444.94L351.6 445.3L351.6 445.3L351.48 445.66L351.48 445.66L351.36 446.14L351.36 446.14L351.24 446.5L351.24 446.5L351 446.98L351 446.98L350.76 447.34L350.76 447.34L350.4 447.82L350.4 447.82L350.04 448.3L350.04 448.3L349.56 448.78L349.56 448.78L349.2 449.26L349.2 449.26L340.8 458.74L340.8 458.74L339.84 457.78L339.84 457.78L340.44 456.58L340.44 456.58L341.04 455.26L341.04 455.26L341.52 454.06L341.52 454.06L342 452.86L342 452.86L342.36 451.54L342.36 451.54L342.72 450.34L342.72 450.34L343.08 449.14L343.08 449.14L343.32 447.94L343.32 447.94L343.56 446.74L343.56 446.74L343.68 445.54L343.68 445.54L343.8 444.22L343.8 444.22L343.92 443.02L343.92 443.02L343.92 441.82L343.92 441.82L343.92 440.62L343.92 440.62L343.8 439.42L343.8 439.42L343.68 438.22L343.68 438.22L343.56 436.78L343.56 436.78L343.44 435.34L343.44 435.34L343.2 433.78L343.2 433.78L342.96 432.22L342.96 432.22L342.6 430.66L342.6 430.66L342.24 428.98L342.24 428.98L341.76 427.42L341.76 427.42L341.28 425.74L341.28 425.74L340.68 424.06L340.68 424.06L340.08 422.38L340.08 422.38L339.36 420.7L339.36 420.7L338.52 418.9L338.52 418.9L337.68 417.22L337.68 417.22L336.84 415.42L336.84 415.42L335.88 413.62L335.88 413.62L334.8 411.7L334.8 411.7L330.36 413.02L330.36 413.02L331.2 416.02L331.2 416.02L332.04 418.78L332.04 418.78L332.64 421.42L332.64 421.42L333.24 423.82L333.24 423.82L333.6 426.22L333.6 426.22L333.96 428.38L333.96 428.38L334.2 430.54L334.2 430.54L334.32 432.46L334.32 432.46L334.44 433.42L334.44 433.42L334.44 434.38L334.44 434.38L334.44 435.46L334.44 435.46L334.44 436.42L334.44 436.42L334.32 437.5L334.32 437.5L334.2 438.46L334.2 438.46L334.08 439.54L334.08 439.54L333.96 440.62L333.96 440.62L333.72 441.7L333.72 441.7L333.48 442.66L333.48 442.66L333.24 443.74L333.24 443.74L333 444.94L333 444.94L332.64 446.02L332.64 446.02L332.28 447.1L332.28 447.1L331.8 448.18L331.8 448.18L331.44 449.38L331.44 449.38L329.28 447.22L329.28 447.22L329.4 444.7L329.4 444.7L329.64 442.18L329.64 442.18L329.64 439.78L329.64 439.78L329.64 437.26L329.64 437.26L329.52 434.86L329.52 434.86L329.4 432.58L329.4 432.58L329.16 430.18L329.16 430.18L328.92 427.9L328.92 427.9L328.56 425.62L328.56 425.62L328.08 423.46L328.08 423.46L327.6 421.18L327.6 421.18L327 419.02L327 419.02L326.4 416.86L326.4 416.86L325.68 414.82L325.68 414.82L324.84 412.66L324.84 412.66L324 410.62L324 410.62L318.84 412.06L318.84 412.06L319.32 415.66L319.32 415.66L319.8 419.26L319.8 419.26L320.16 422.74L320.16 422.74L320.4 425.98L320.4 425.98L320.52 429.22L320.52 429.22L320.64 432.34L320.64 432.34L320.52 435.46L320.52 435.46L320.52 436.9L320.52 436.9L320.4 438.34L320.4 438.34L318 435.94L318 435.94L318 434.86L318 434.86L317.88 433.78L317.88 433.78L317.76 432.7L317.76 432.7L317.52 431.62L317.52 431.62L317.4 430.42L317.4 430.42L317.16 429.34L317.16 429.34L316.92 428.26L316.92 428.26L316.56 427.18L316.56 427.18L316.2 426.1L316.2 426.1L315.84 425.02L315.84 425.02L315.48 423.82L315.48 423.82L315 422.74L315 422.74L314.64 421.66L314.64 421.66L314.04 420.58L314.04 420.58L313.56 419.5L313.56 419.5L312.96 418.42L312.96 418.42L308.04 419.86L308.04 419.86L308.28 421.18L308.28 421.18L308.52 422.38L308.52 422.38L308.64 423.58L308.64 423.58L308.88 424.78L308.88 424.78L308.88 425.98L308.88 425.98L309 427.18L309 427.18L309 428.38L309 428.38L309.12 429.58L309.12 429.58L309 430.66L309 430.66L309 431.86L309 431.86L308.88 432.94L308.88 432.94L308.76 434.14L308.76 434.14L308.64 435.22L308.64 435.22L308.52 436.3L308.52 436.3L308.28 437.38L308.28 437.38L308.04 438.46L308.04 438.46L303.84 433.18L303.84 433.18L280.2 456.7L280.2 456.7L289.56 464.02L289.56 464.02L290.64 462.82L290.64 462.82L310.32 482.62L310.32 482.62L311.04 489.1L311.04 489.1L323.64 490.3L323.64 490.3L324.12 485.98L324.12 485.98L338.52 471.58L338.52 471.58L331.2 462.1L331.2 462.1L329.64 463.54L329.64 463.54L316.68 450.58L316.68 450.58L317.16 449.02L317.16 449.02L317.52 447.46L317.52 447.46L317.76 445.9L317.76 445.9L318 444.46L318 444.46L336.72 463.06z" stroke="none" fill="#C0C0C0" fill-rule="evenodd" fill-opacity="0.2745098" /><path id="4" transform="matrix(1 0 0 -1 0 841)" d="M352.8 503.14L356.88 504.46L356.88 504.46L370.2 475.66L370.2 475.66L371.64 475.66L371.64 475.66L373.2 475.66L373.2 475.66L374.88 475.54L374.88 475.54L376.56 475.42L376.56 475.42L378.36 475.3L378.36 475.3L380.28 475.06L380.28 475.06L382.2 474.7L382.2 474.7L384.24 474.46L384.24 474.46L382.8 458.74L382.8 458.74L381.48 459.58L381.48 459.58L380.16 460.42L380.16 460.42L378.84 461.26L378.84 461.26L377.52 461.98L377.52 461.98L376.2 462.7L376.2 462.7L374.88 463.42L374.88 463.42L373.56 464.02L373.56 464.02L372.24 464.62L372.24 464.62L370.92 465.22L370.92 465.22L369.6 465.82L369.6 465.82L368.28 466.3L368.28 466.3L366.96 466.78L366.96 466.78L365.64 467.26L365.64 467.26L364.32 467.62L364.32 467.62L363 467.98L363 467.98L361.68 468.34L361.68 468.34L352.8 503.14M339.12 493.42L341.16 493.9L341.16 493.9L343.08 494.26L343.08 494.26L344.88 494.5L344.88 494.5L346.8 494.74L346.8 494.74L348.48 494.98L348.48 494.98L350.16 494.98L350.16 494.98L351.84 495.1L351.84 495.1L353.4 494.98L353.4 494.98L353.88 483.46L353.88 483.46L351.84 484.3L351.84 484.3L349.8 485.02L349.8 485.02L347.88 485.74L347.88 485.74L345.96 486.34L345.96 486.34L344.16 486.82L344.16 486.82L342.36 487.3L342.36 487.3L340.68 487.66L340.68 487.66L339 487.9L339 487.9L339.12 493.42zM333.96 508.9L336 509.5L336 509.5L338.04 509.98L338.04 509.98L339.96 510.46L339.96 510.46L341.76 510.94L341.76 510.94L343.56 511.18L343.56 511.18L345.24 511.42L345.24 511.42L346.92 511.66L346.92 511.66L348.48 511.78L348.48 511.78L348.96 500.02L348.96 500.02L346.92 500.62L346.92 500.62L344.88 501.22L344.88 501.22L342.96 501.82L342.96 501.82L341.04 502.3L341.04 502.3L339.12 502.66L339.12 502.66L337.32 502.9L337.32 502.9L335.64 503.14L335.64 503.14L333.84 503.26L333.84 503.26L333.96 508.9zM348.12 518.86L357.96 524.02L357.96 524.02L358.8 522.46L358.8 522.46L359.64 520.9L359.64 520.9L360.24 519.46L360.24 519.46L360.96 517.9L360.96 517.9L363.36 520.3L363.36 520.3L353.76 529.9L353.76 529.9L362.4 536.38L362.4 536.38L370.92 527.86L370.92 527.86L373.8 530.86L373.8 530.86L373.8 536.74L373.8 536.74L383.52 537.1L383.52 537.1L383.52 532.42L383.52 532.42L374.88 523.9L374.88 523.9L383.76 514.9L383.76 514.9L388.68 519.8201L388.68 519.8201L388.8 525.58L388.8 525.58L398.16 525.7L398.16 525.7L398.28 521.14L398.28 521.14L391.68 514.54L391.68 514.54L406.32 499.9L406.32 499.9L406.8 499.54L406.8 499.54L407.04 499.3L407.04 499.3L407.28 499.3L407.28 499.3L407.366 499.225L407.366 499.225L407.472 499.244L407.472 499.244L407.52 499.3L407.52 499.3L408.12 499.9L408.12 499.9L408.48 500.26L408.48 500.26L408.72 500.5L408.72 500.5L408.84 500.86L408.84 500.86L408.96 501.1L408.96 501.1L409.08 501.46L409.08 501.46L409.08 501.7L409.08 501.7L408.96 501.94L408.96 501.94L408.84 502.18L408.84 502.18L404.28 509.02L404.28 509.02L407.88 511.66L407.88 511.66L408.96 510.34L408.96 510.34L410.04 509.38L410.04 509.38L410.52 508.78L410.52 508.78L411.12 508.3L411.12 508.3L411.72 507.82L411.72 507.82L412.2 507.46L412.2 507.46L412.8 507.1L412.8 507.1L413.28 506.74L413.28 506.74L413.76 506.38L413.76 506.38L414.36 506.14L414.36 506.14L414.84 505.9L414.84 505.9L415.32 505.78L415.32 505.78L415.92 505.54L415.92 505.54L416.4 505.42L416.4 505.42L416.88 505.42L416.88 505.42L417.36 505.42L417.36 505.42L417.84 505.42L417.84 505.42L418.32 505.42L418.32 505.42L418.68 504.7L418.68 504.7L418.92 503.98L418.92 503.98L419.16 503.26L419.16 503.26L419.28 502.54L419.28 502.54L419.4 501.94L419.4 501.94L419.52 501.22L419.52 501.22L419.52 500.5L419.52 500.5L419.4 499.9L419.4 499.9L419.4 499.3L419.4 499.3L419.16 498.7L419.16 498.7L418.92 498.1L418.92 498.1L418.68 497.5L418.68 497.5L418.32 496.9L418.32 496.9L417.96 496.3L417.96 496.3L417.48 495.82L417.48 495.82L417 495.22L417 495.22L411.12 489.34L411.12 489.34L410.64 488.86L410.64 488.86L410.16 488.5L410.16 488.5L409.56 488.14L409.56 488.14L409.08 487.9L409.08 487.9L408.48 487.66L408.48 487.66L407.88 487.54L407.88 487.54L407.28 487.54L407.28 487.54L406.68 487.54L406.68 487.54L406.08 487.66L406.08 487.66L405.48 487.78L405.48 487.78L404.88 488.02L404.88 488.02L404.28 488.38L404.28 488.38L403.56 488.74L403.56 488.74L402.96 489.1L402.96 489.1L402.24 489.7L402.24 489.7L401.52 490.3L401.52 490.3L384.48 507.34L384.48 507.34L381.72 504.58L381.72 504.58L383.04 503.26L383.04 503.26L384 502.42L384 502.42L384.84 501.46L384.84 501.46L385.68 500.5L385.68 500.5L386.4 499.54L386.4 499.54L387.12 498.58L387.12 498.58L387.84 497.62L387.84 497.62L388.56 496.66L388.56 496.66L389.16 495.58L389.16 495.58L389.76 494.62L389.76 494.62L390.24 493.54L390.24 493.54L390.72 492.58L390.72 492.58L391.2 491.5L391.2 491.5L391.56 490.54L391.56 490.54L391.92 489.46L391.92 489.46L392.28 488.38L392.28 488.38L392.64 487.3L392.64 487.3L392.88 486.22L392.88 486.22L393 485.14L393 485.14L393.24 484.06L393.24 484.06L393.36 482.86L393.36 482.86L393.36 481.78L393.36 481.78L393.48 480.7L393.48 480.7L393.48 479.5L393.48 479.5L393.48 478.3L393.48 478.3L393.36 477.22L393.36 477.22L393.24 476.02L393.24 476.02L393.12 474.82L393.12 474.82L392.88 473.62L392.88 473.62L392.64 472.42L392.64 472.42L392.4 471.22L392.4 471.22L392.04 470.02L392.04 470.02L391.68 468.82L391.68 468.82L386.4 469.78L386.4 469.78L386.52 471.7L386.52 471.7L386.4 473.5L386.4 473.5L386.16 475.42L386.16 475.42L385.92 477.22L385.92 477.22L385.56 478.9L385.56 478.9L385.08 480.7L385.08 480.7L384.48 482.38L384.48 482.38L383.88 484.18L383.88 484.18L383.52 485.02L383.52 485.02L383.04 485.86L383.04 485.86L382.68 486.7L382.68 486.7L382.2 487.42L382.2 487.42L381.72 488.26L381.72 488.26L381.24 489.1L381.24 489.1L380.76 489.94L380.76 489.94L380.28 490.66L380.28 490.66L379.68 491.5L379.68 491.5L379.08 492.34L379.08 492.34L378.48 493.06L378.48 493.06L377.88 493.9L377.88 493.9L377.16 494.62L377.16 494.62L376.44 495.34L376.44 495.34L375.72 496.18L375.72 496.18L375 496.9L375 496.9L374.52 497.38L374.52 497.38L368.4 491.14L368.4 491.14L363.24 494.38L363.24 494.38L376.32 507.46L376.32 507.46L367.44 516.34L367.44 516.34L363.24 512.14L363.24 512.14L363.72 510.7L363.72 510.7L364.2 509.26L364.2 509.26L364.56 507.94L364.56 507.94L364.92 506.5L364.92 506.5L365.16 505.18L365.16 505.18L365.4 503.98L365.4 503.98L365.64 502.66L365.64 502.66L365.76 501.46L365.76 501.46L360.6 500.14L360.6 500.14L359.28 502.54L359.28 502.54L357.96 505.06L357.96 505.06L356.4 507.34L356.4 507.34L354.96 509.74L354.96 509.74L353.28 512.02L353.28 512.02L351.72 514.42L351.72 514.42L349.92 516.58L349.92 516.58L348.12 518.86z" stroke="none" fill="#C0C0C0" fill-rule="evenodd" fill-opacity="0.2745098" /></g><g clip-path="url(#3)"><g clip-path="url(#4)"></g></g><g clip-path="url(#5)"></g><g clip-path="url(#6)"><g clip-path="url(#7)"><g clip-path="url(#8)"></g></g></g><g clip-path="url(#9)"><g clip-path="url(#10)"></g></g><g clip-path="url(#11)"><g clip-path="url(#12)"></g></g><g clip-path="url(#13)"><g clip-path="url(#14)"></g></g><g clip-path="url(#15)"><g clip-path="url(#16)"></g></g><g clip-path="url(#17)"><g clip-path="url(#18)"></g></g><g clip-path="url(#19)"><g clip-path="url(#20)"></g></g><g clip-path="url(#21)"><g clip-path="url(#22)"></g></g><g clip-path="url(#23)"><g clip-path="url(#24)"></g></g><g clip-path="url(#25)"><g clip-path="url(#26)"></g></g><g clip-path="url(#27)"><g clip-path="url(#28)"></g></g><g clip-path="url(#29)"><g clip-path="url(#30)"><g clip-path="url(#31)"></g></g></g><g clip-path="url(#32)"><path id="203" transform="matrix(1 0 0 -1 0 841)" d="M112.61 325.31L255.59 325.31" stroke="#000000" stroke-width="0.48" fill="none" /><path id="204" transform="matrix(1 0 0 -1 0 841)" d="M112.61 268.71L255.59 268.71" stroke="#000000" stroke-width="0.48" fill="none" /><path id="205" transform="matrix(1 0 0 -1 0 841)" d="M112.85 325.55L112.85 268.95" stroke="#000000" stroke-width="0.48" fill="none" /><path id="206" transform="matrix(1 0 0 -1 0 841)" d="M255.35 325.55L255.35 268.95" stroke="#000000" stroke-width="0.48" fill="none" /></g><g clip-path="url(#33)"><g clip-path="url(#34)"></g></g><g clip-path="url(#35)"><g clip-path="url(#36)"></g></g><g clip-path="url(#37)"><g clip-path="url(#38)"></g></g><g clip-path="url(#39)"><path id="233" transform="matrix(1 0 0 -1 0 841)" d="M54.96 429.11L538.49 429.11" stroke="#000000" stroke-width="0.48" fill="none" /><path id="234" transform="matrix(1 0 0 -1 0 841)" d="M54.96 382.51L538.49 382.51" stroke="#000000" stroke-width="0.48" fill="none" /><path id="235" transform="matrix(1 0 0 -1 0 841)" d="M54.96 325.81L538.49 325.81" stroke="#000000" stroke-width="0.48" fill="none" /><path id="236" transform="matrix(1 0 0 -1 0 841)" d="M54.96 269.11L538.49 269.11" stroke="#000000" stroke-width="0.48" fill="none" /><path id="237" transform="matrix(1 0 0 -1 0 841)" d="M55.2 429.35L55.2 269.35" stroke="#000000" stroke-width="0.48" fill="none" /><path id="238" transform="matrix(1 0 0 -1 0 841)" d="M112.85 429.35L112.85 269.35" stroke="#000000" stroke-width="0.48" fill="none" /><path id="239" transform="matrix(1 0 0 -1 0 841)" d="M255.35 429.35L255.35 269.35" stroke="#000000" stroke-width="0.48" fill="none" /><path id="240" transform="matrix(1 0 0 -1 0 841)" d="M364.85 429.35L364.85 269.35" stroke="#000000" stroke-width="0.48" fill="none" /><path id="241" transform="matrix(1 0 0 -1 0 841)" d="M454.1 429.35L454.1 269.35" stroke="#000000" stroke-width="0.48" fill="none" /><path id="242" transform="matrix(1 0 0 -1 0 841)" d="M538.25 429.35L538.25 269.35" stroke="#000000" stroke-width="0.48" fill="none" /></g></g></g></svg>