<svg xmlns="http://www.w3.org/2000/svg" xmlns:xlink="http://www.w3.org/1999/xlink" id="body_1" preserveAspectRatio="xMinYMin meet" viewBox="0 0 789 1119"><defs><clipPath id="1"><path id="" clip-rule="evenodd" transform="matrix(1 0 0 1 0 0)" d="M0 839L0 -0.1500244L0 -0.1500244L592.5 -0.1500244L592.5 -0.1500244L592.5 839L592.5 839L0 839z" /></clipPath><clipPath id="2"><path id="" clip-rule="evenodd" transform="matrix(1 0 0 1 0 0)" d="M0 -0.1500244L592.5 -0.1500244L592.5 -0.1500244L592.5 839L592.5 839L0 839z" /></clipPath></defs><g transform="matrix(1.333333 0 0 1.333333 0 0)"><g clip-path="url(#1)"><g clip-path="url(#2)"><path id="1" transform="matrix(1 0 0 -1 0 839)" d="M211.92 371.75L214.2 374.15L214.2 374.15L214.08 381.47L214.08 381.47L226.32 382.67L226.32 382.67L226.44 378.35L226.44 378.35L238.44 366.47L238.44 366.47L237.96 369.59L237.96 369.59L245.76 368.51L245.76 368.51L246.36 364.79L246.36 364.79L235.44 353.87L235.44 353.87L236.88 353.51L236.88 353.51L238.2 353.15L238.2 353.15L239.52 352.79L239.52 352.79L240.96 352.55L240.96 352.55L242.28 352.31L242.28 352.31L243.72 352.07L243.72 352.07L245.04 351.95L245.04 351.95L246.36 351.83L246.36 351.83L248.04 351.71L248.04 351.71L249.72 351.71L249.72 351.71L251.4 351.83L251.4 351.83L253.2 351.95L253.2 351.95L255 352.31L255 352.31L256.68 352.67L256.68 352.67L258.6 353.03L258.6 353.03L260.4 353.63L260.4 353.63L264.6 340.55L264.6 340.55L263.64 340.31L263.64 340.31L262.56 340.19L262.56 340.19L261.6 340.07L261.6 340.07L260.52 340.07L260.52 340.07L259.56 339.95L259.56 339.95L258.48 339.95L258.48 339.95L257.28 340.07L257.28 340.07L256.2 340.07L256.2 340.07L255.12 340.19L255.12 340.19L253.92 340.43L253.92 340.43L252.72 340.55L252.72 340.55L251.52 340.91L251.52 340.91L250.32 341.15L250.32 341.15L249 341.51L249 341.51L247.8 341.87L247.8 341.87L246.48 342.23L246.48 342.23L244.68 342.83L244.68 342.83L242.76 343.55L242.76 343.55L240.96 344.39L240.96 344.39L239.16 345.23L239.16 345.23L237.24 346.19L237.24 346.19L235.44 347.27L235.44 347.27L233.64 348.35L233.64 348.35L231.72 349.55L231.72 349.55L232.56 348.23L232.56 348.23L233.28 346.91L233.28 346.91L234 345.59L234 345.59L234.6 344.27L234.6 344.27L235.2 342.95L235.2 342.95L235.68 341.75L235.68 341.75L236.16 340.43L236.16 340.43L236.52 339.11L236.52 339.11L237 337.67L237 337.67L237.36 336.11L237.36 336.11L237.72 334.67L237.72 334.67L238.08 333.11L238.08 333.11L238.32 331.55L238.32 331.55L238.56 330.11L238.56 330.11L238.68 328.55L238.68 328.55L238.8 326.9901L238.8 326.9901L238.8 325.4301L238.8 325.4301L238.8 323.87L238.8 323.87L238.8 322.31L238.8 322.31L238.68 320.75L238.68 320.75L238.44 319.07L238.44 319.07L238.32 317.51L238.32 317.51L237.96 315.95L237.96 315.95L237.72 314.27L237.72 314.27L232.32 315.47L232.32 315.47L232.2 316.79L232.2 316.79L232.08 318.11L232.08 318.11L231.96 319.4301L231.96 319.4301L231.84 320.75L231.84 320.75L231.6 322.07L231.6 322.07L231.36 323.27L231.36 323.27L231.12 324.59L231.12 324.59L230.88 325.91L230.88 325.91L230.52 327.11L230.52 327.11L230.16 328.31L230.16 328.31L229.8 329.63L229.8 329.63L229.44 330.83L229.44 330.83L229.08 332.03L229.08 332.03L228.6 333.23L228.6 333.23L228.12 334.31L228.12 334.31L227.64 335.51L227.64 335.51L227.28 336.35L227.28 336.35L226.92 337.19L226.92 337.19L226.44 338.03L226.44 338.03L225.96 338.87L225.96 338.87L225.6 339.83L225.6 339.83L225 340.67L225 340.67L224.52 341.51L224.52 341.51L223.92 342.35L223.92 342.35L216.48 334.91L216.48 334.91L211.56 337.91L211.56 337.91L220.68 347.03L220.68 347.03L219.24 348.71L219.24 348.71L217.68 350.39L217.68 350.39L216.12 352.07L216.12 352.07L214.44 353.75L214.44 353.75L208.08 360.11L208.08 360.11L202.44 354.47L202.44 354.47L197.64 357.59L197.64 357.59L204.24 364.07L204.24 364.07L195.36 372.95L195.36 372.95L204.24 379.55L204.24 379.55L211.92 371.75M231.48 357.95L218.76 370.79L218.76 370.79L215.88 367.91L215.88 367.91L222.12 361.67L222.12 361.67L223.8 359.87L223.8 359.87L225.36 358.07L225.36 358.07L226.92 356.39L226.92 356.39L228.24 354.59L228.24 354.59L231.48 357.95zM176.76 354.47L185.16 361.07L185.16 361.07L193.44 352.79L193.44 352.79L194.4 356.03L194.4 356.03L196.8 355.43L196.8 355.43L199.2 354.71L199.2 354.71L201.6 353.99L201.6 353.99L203.76 353.27L203.76 353.27L205.8 352.55L205.8 352.55L207.72 351.95L207.72 351.95L209.52 351.23L209.52 351.23L211.32 350.51L211.32 350.51L208.44 341.27L208.44 341.27L205.8 343.07L205.8 343.07L203.28 344.87L203.28 344.87L200.64 346.67L200.64 346.67L197.88 348.35L197.88 348.35L234.36 311.87L234.36 311.87L227.76 303.47L227.76 303.47L176.76 354.47zM180.24 341.15L184.92 344.27L184.92 344.27L190.92 338.27L190.92 338.27L194.28 334.79L194.28 334.79L197.28 331.67L197.28 331.67L199.8 329.03L199.8 329.03L201.96 326.63L201.96 326.63L193.92 324.11L193.92 324.11L193.32 324.95L193.32 324.95L192.6 325.91L192.6 325.91L191.16 327.95L191.16 327.95L189.48 330.11L189.48 330.11L187.68 332.39L187.68 332.39L186 334.55L186 334.55L184.2 336.71L184.2 336.71L182.28 338.87L182.28 338.87L180.24 341.15z" stroke="none" fill="#C0C0C0" fill-rule="evenodd" fill-opacity="0.2745098" /><path id="2" transform="matrix(1 0 0 -1 0 839)" d="M280.2 412.19L280.2 417.95L280.2 417.95L289.68 418.19L289.68 418.19L289.68 413.63L289.68 413.63L277.32 401.27L277.32 401.27L283.92 394.67L283.92 394.67L294.48 405.35L294.48 405.35L294.84 411.11L294.84 411.11L304.68 411.35L304.68 411.35L304.8 405.95L304.8 405.95L288.72 389.87L288.72 389.87L300 378.59L300 378.59L292.56 368.75L292.56 368.75L280.08 381.23L280.08 381.23L261 362.27L261 362.27L255.12 365.87L255.12 365.87L275.28 386.03L275.28 386.03L268.8 392.63L268.8 392.63L251.76 375.59L251.76 375.59L246.48 386.03L246.48 386.03L241.56 395.63L241.56 395.63L234.6 388.67L234.6 388.67L229.56 391.91L229.56 391.91L238.8 401.15L238.8 401.15L236.28 406.31L236.28 406.31L234 411.35L234 411.35L243.72 418.19L243.72 418.19L247.68 410.03L247.68 410.03L268.68 430.91L268.68 430.91L268.8 436.43L268.8 436.43L278.04 436.67L278.04 436.67L278.16 432.11L278.16 432.11L250.44 404.39L250.44 404.39L257.52 389.51L257.52 389.51L264.72 396.71L264.72 396.71L256.08 405.35L256.08 405.35L265.68 412.91L265.68 412.91L273.36 405.23L273.36 405.23L280.2 412.19" stroke="none" fill="#C0C0C0" fill-rule="evenodd" fill-opacity="0.2745098" /><path id="3" transform="matrix(1 0 0 -1 0 839)" d="M296.88 453.83L316.68 473.75L316.68 473.75L313.32 477.23L313.32 477.23L293.4 457.31L293.4 457.31L296.88 453.83M304.32 446.51L324.12 466.31L324.12 466.31L320.64 469.91L320.64 469.91L300.72 449.99L300.72 449.99L304.32 446.51zM335.28 461.75L335.76 468.35L335.76 468.35L348.6 469.91L348.6 469.91L348.36 464.99L348.36 464.99L349.8 463.55L349.8 463.55L351.12 462.11L351.12 462.11L352.44 460.79L352.44 460.79L353.64 459.47L353.64 459.47L354.72 458.15L354.72 458.15L355.8 456.95L355.8 456.95L356.76 455.87L356.76 455.87L357.6 454.67L357.6 454.67L358.44 453.59L358.44 453.59L359.16 452.63L359.16 452.63L359.76 451.67L359.76 451.67L360.36 450.71L360.36 450.71L360.84 449.87L360.84 449.87L361.2 449.03L361.2 449.03L361.56 448.31L361.56 448.31L361.8 447.59L361.8 447.59L362.04 446.75L362.04 446.75L362.28 446.03L362.28 446.03L362.52 445.19L362.52 445.19L362.64 444.47L362.64 444.47L362.64 443.75L362.64 443.75L362.64 442.91L362.64 442.91L362.64 442.19L362.64 442.19L362.4 441.47L362.4 441.47L362.28 440.75L362.28 440.75L361.92 439.91L361.92 439.91L361.56 439.19L361.56 439.19L361.2 438.47L361.2 438.47L360.72 437.75L360.72 437.75L360.12 437.03L360.12 437.03L359.52 436.31L359.52 436.31L358.92 435.59L358.92 435.59L355.8 432.59L355.8 432.59L355.32 433.07L355.32 433.07L354.84 433.43L354.84 433.43L354.24 433.67L354.24 433.67L353.76 434.03L353.76 434.03L353.16 434.15L353.16 434.15L352.56 434.27L352.56 434.27L351.96 434.39L351.96 434.39L351.36 434.39L351.36 434.39L350.76 434.39L350.76 434.39L350.16 434.27L350.16 434.27L349.44 434.15L349.44 434.15L348.84 433.91L348.84 433.91L348.12 433.67L348.12 433.67L347.52 433.31L347.52 433.31L346.8 432.95L346.8 432.95L346.08 432.47L346.08 432.47L342.84 436.19L342.84 436.19L343.68 436.79L343.68 436.79L344.52 437.39L344.52 437.39L345.36 437.99L345.36 437.99L346.2 438.71L346.2 438.71L347.04 439.43L347.04 439.43L347.88 440.15L347.88 440.15L348.72 440.99L348.72 440.99L349.56 441.83L349.56 441.83L349.8 442.07L349.8 442.07L350.04 442.31L350.04 442.31L350.16 442.67L350.16 442.67L350.28 442.91L350.28 442.91L350.28 443.27L350.28 443.27L350.28 443.63L350.28 443.63L350.16 443.99L350.16 443.99L350.16 444.35L350.16 444.35L350.04 444.71L350.04 444.71L349.8 445.19L349.8 445.19L349.56 445.55L349.56 445.55L349.32 446.03L349.32 446.03L348.96 446.51L348.96 446.51L348.6 446.99L348.6 446.99L348.24 447.47L348.24 447.47L347.76 447.95L347.76 447.95L339.48 457.43L339.48 457.43L338.4 456.47L338.4 456.47L339.12 455.15L339.12 455.15L339.6 453.95L339.6 453.95L340.08 452.75L340.08 452.75L340.56 451.43L340.56 451.43L341.04 450.23L341.04 450.23L341.4 449.03L341.4 449.03L341.64 447.83L341.64 447.83L342 446.51L342 446.51L342.12 445.31L342.12 445.31L342.36 444.11L342.36 444.11L342.48 442.91L342.48 442.91L342.48 441.71L342.48 441.71L342.48 440.51L342.48 440.51L342.48 439.31L342.48 439.31L342.36 438.11L342.36 438.11L342.24 436.91L342.24 436.91L342.24 435.47L342.24 435.47L342 433.91L342 433.91L341.88 432.35L341.88 432.35L341.52 430.91L341.52 430.91L341.28 429.23L341.28 429.23L340.8 427.67L340.8 427.67L340.44 426.11L340.44 426.11L339.84 424.43L339.84 424.43L339.24 422.75L339.24 422.75L338.64 421.07L338.64 421.07L337.92 419.39L337.92 419.39L337.2 417.59L337.2 417.59L336.36 415.79L336.36 415.79L335.4 413.99L335.4 413.99L334.44 412.19L334.44 412.19L333.48 410.39L333.48 410.39L328.92 411.71L328.92 411.71L329.88 414.59L329.88 414.59L330.6 417.35L330.6 417.35L331.2 419.99L331.2 419.99L331.8 422.51L331.8 422.51L332.28 424.91L332.28 424.91L332.64 427.07L332.64 427.07L332.88 429.11L332.88 429.11L333 431.03L333 431.03L333 432.11L333 432.11L333 433.07L333 433.07L333 434.03L333 434.03L333 435.11L333 435.11L333 436.07L333 436.07L332.88 437.15L332.88 437.15L332.76 438.23L332.76 438.23L332.52 439.19L332.52 439.19L332.4 440.27L332.4 440.27L332.16 441.35L332.16 441.35L331.8 442.43L331.8 442.43L331.56 443.51L331.56 443.51L331.2 444.59L331.2 444.59L330.84 445.79L330.84 445.79L330.48 446.87L330.48 446.87L330 447.95L330 447.95L327.84 445.79L327.84 445.79L328.08 443.27L328.08 443.27L328.2 440.87L328.2 440.87L328.2 438.35L328.2 438.35L328.2 435.95L328.2 435.95L328.2 433.55L328.2 433.55L327.96 431.15L327.96 431.15L327.84 428.87L327.84 428.87L327.48 426.59L327.48 426.59L327.12 424.31L327.12 424.31L326.64 422.03L326.64 422.03L326.16 419.87L326.16 419.87L325.56 417.71L325.56 417.71L324.96 415.55L324.96 415.55L324.24 413.39L324.24 413.39L323.52 411.35L323.52 411.35L322.56 409.31L322.56 409.31L317.4 410.75L317.4 410.75L318 414.35L318 414.35L318.36 417.95L318.36 417.95L318.72 421.31L318.72 421.31L319.08 424.67L319.08 424.67L319.2 427.91L319.2 427.91L319.2 431.03L319.2 431.03L319.2 434.03L319.2 434.03L319.08 435.47L319.08 435.47L318.96 436.91L318.96 436.91L316.68 434.63L316.68 434.63L316.56 433.55L316.56 433.55L316.44 432.47L316.44 432.47L316.32 431.27L316.32 431.27L316.2 430.19L316.2 430.19L315.96 429.11L315.96 429.11L315.72 428.03L315.72 428.03L315.48 426.95L315.48 426.95L315.24 425.87L315.24 425.87L314.88 424.79L314.88 424.79L314.52 423.59L314.52 423.59L314.04 422.51L314.04 422.51L313.68 421.43L313.68 421.43L313.2 420.35L313.2 420.35L312.72 419.27L312.72 419.27L312.12 418.07L312.12 418.07L311.64 416.99L311.64 416.99L306.72 418.55L306.72 418.55L306.96 419.75L306.96 419.75L307.08 421.07L307.08 421.07L307.32 422.27L307.32 422.27L307.44 423.47L307.44 423.47L307.56 424.67L307.56 424.67L307.56 425.87L307.56 425.87L307.68 427.07L307.68 427.07L307.68 428.15L307.68 428.15L307.68 429.35L307.68 429.35L307.56 430.43L307.56 430.43L307.56 431.63L307.56 431.63L307.44 432.71L307.44 432.71L307.2 433.91L307.2 433.91L307.08 434.99L307.08 434.99L306.84 436.07L306.84 436.07L306.6 437.15L306.6 437.15L302.4 431.75L302.4 431.75L278.88 455.39L278.88 455.39L288.12 462.59L288.12 462.59L289.2 461.51L289.2 461.51L309 481.31L309 481.31L309.72 487.79L309.72 487.79L322.2 488.99L322.2 488.99L322.68 484.67L322.68 484.67L337.08 470.27L337.08 470.27L329.76 460.67L329.76 460.67L328.32 462.23L328.32 462.23L315.24 449.15L315.24 449.15L315.72 447.59L315.72 447.59L316.08 446.15L316.08 446.15L316.32 444.59L316.32 444.59L316.56 443.03L316.56 443.03L335.28 461.75z" stroke="none" fill="#C0C0C0" fill-rule="evenodd" fill-opacity="0.2745098" /><path id="4" transform="matrix(1 0 0 -1 0 839)" d="M351.36 501.71L355.56 503.03L355.56 503.03L368.76 474.35L368.76 474.35L370.2 474.35L370.2 474.35L371.76 474.35L371.76 474.35L373.44 474.23L373.44 474.23L375.24 474.11L375.24 474.11L377.04 473.87L377.04 473.87L378.84 473.63L378.84 473.63L380.88 473.39L380.88 473.39L382.92 473.03L382.92 473.03L381.48 457.43L381.48 457.43L380.16 458.27L380.16 458.27L378.84 459.11L378.84 459.11L377.52 459.83L377.52 459.83L376.2 460.67L376.2 460.67L374.88 461.39L374.88 461.39L373.56 462.11L373.56 462.11L372.24 462.71L372.24 462.71L370.92 463.31L370.92 463.31L369.6 463.91L369.6 463.91L368.28 464.39L368.28 464.39L366.96 464.99L366.96 464.99L365.64 465.47L365.64 465.47L364.32 465.83L364.32 465.83L363 466.31L363 466.31L361.68 466.67L361.68 466.67L360.36 466.91L360.36 466.91L351.36 501.71M337.68 492.11L339.72 492.59L339.72 492.59L341.64 492.95L341.64 492.95L343.56 493.19L343.56 493.19L345.36 493.43L345.36 493.43L347.16 493.55L347.16 493.55L348.84 493.67L348.84 493.67L350.4 493.67L350.4 493.67L352.08 493.67L352.08 493.67L352.44 482.15L352.44 482.15L350.4 482.99L350.4 482.99L348.48 483.71L348.48 483.71L346.44 484.43L346.44 484.43L344.64 485.03L344.64 485.03L342.72 485.51L342.72 485.51L341.04 485.87L341.04 485.87L339.24 486.35L339.24 486.35L337.56 486.59L337.56 486.59L337.68 492.11zM332.52 507.59L334.56 508.19L334.56 508.19L336.6 508.67L336.6 508.67L338.52 509.15L338.52 509.15L340.32 509.51L340.32 509.51L342.12 509.87L342.12 509.87L343.92 510.11L343.92 510.11L345.48 510.23L345.48 510.23L347.16 510.35L347.16 510.35L347.64 498.59L347.64 498.59L345.48 499.31L345.48 499.31L343.44 499.91L343.44 499.91L341.52 500.39L341.52 500.39L339.6 500.87L339.6 500.87L337.8 501.23L337.8 501.23L336 501.59L336 501.59L334.2 501.83L334.2 501.83L332.52 501.95L332.52 501.95L332.52 507.59zM346.68 517.55L356.64 522.71L356.64 522.71L357.48 521.15L357.48 521.15L358.2 519.59L358.2 519.59L358.92 518.03L358.92 518.03L359.52 516.59L359.52 516.59L361.92 518.99L361.92 518.99L352.44 528.59L352.44 528.59L360.96 535.0701L360.96 535.0701L369.48 526.55L369.48 526.55L372.36 529.4301L372.36 529.4301L372.36 535.4301L372.36 535.4301L382.08 535.79L382.08 535.79L382.08 530.99L382.08 530.99L373.56 522.47L373.56 522.47L382.44 513.59L382.44 513.59L387.36 518.51L387.36 518.51L387.36 524.27L387.36 524.27L396.72 524.39L396.72 524.39L396.96 519.83L396.96 519.83L390.36 513.23L390.36 513.23L404.88 498.59L404.88 498.59L405.36 498.23L405.36 498.23L405.72 497.99L405.72 497.99L405.84 497.87L405.84 497.87L405.966 497.875L405.966 497.875L406.072 497.894L406.072 497.894L406.2 497.99L406.2 497.99L406.8 498.59L406.8 498.59L407.04 498.83L407.04 498.83L407.28 499.19L407.28 499.19L407.52 499.55L407.52 499.55L407.52 499.79L407.52 499.79L407.64 500.03L407.64 500.03L407.64 500.39L407.64 500.39L407.52 500.63L407.52 500.63L407.4 500.87L407.4 500.87L402.84 507.71L402.84 507.71L406.44 510.23L406.44 510.23L407.64 509.03L407.64 509.03L408.6 508.07L408.6 508.07L409.2 507.47L409.2 507.47L409.68 506.99L409.68 506.99L410.28 506.51L410.28 506.51L410.76 506.03L410.76 506.03L411.36 505.67L411.36 505.67L411.84 505.31L411.84 505.31L412.44 505.07L412.44 505.07L412.92 504.83L412.92 504.83L413.4 504.59L413.4 504.59L414 504.35L414 504.35L414.48 504.23L414.48 504.23L414.96 504.11L414.96 504.11L415.44 504.11L415.44 504.11L415.92 503.99L415.92 503.99L416.4 504.11L416.4 504.11L416.88 504.11L416.88 504.11L417.24 503.39L417.24 503.39L417.48 502.67L417.48 502.67L417.72 501.95L417.72 501.95L417.96 501.23L417.96 501.23L418.08 500.51L418.08 500.51L418.08 499.91L418.08 499.91L418.08 499.19L418.08 499.19L418.08 498.59L418.08 498.59L417.96 497.87L417.96 497.87L417.84 497.27L417.84 497.27L417.6 496.67L417.6 496.67L417.24 496.07L417.24 496.07L417 495.59L417 495.59L416.52 494.99L416.52 494.99L416.16 494.39L416.16 494.39L415.68 493.91L415.68 493.91L409.8 488.03L409.8 488.03L409.2 487.55L409.2 487.55L408.72 487.19L408.72 487.19L408.12 486.83L408.12 486.83L407.64 486.59L407.64 486.59L407.04 486.35L407.04 486.35L406.56 486.23L406.56 486.23L405.96 486.23L405.96 486.23L405.36 486.23L405.36 486.23L404.76 486.35L404.76 486.35L404.16 486.47L404.16 486.47L403.44 486.71L403.44 486.71L402.84 486.95L402.84 486.95L402.24 487.31L402.24 487.31L401.52 487.79L401.52 487.79L400.8 488.27L400.8 488.27L400.2 488.87L400.2 488.87L383.04 506.03L383.04 506.03L380.4 503.27L380.4 503.27L381.72 501.95L381.72 501.95L382.56 500.99L382.56 500.99L383.4 500.03L383.4 500.03L384.24 499.19L384.24 499.19L385.08 498.23L385.08 498.23L385.8 497.27L385.8 497.27L386.52 496.19L386.52 496.19L387.12 495.23L387.12 495.23L387.72 494.27L387.72 494.27L388.32 493.31L388.32 493.31L388.8 492.23L388.8 492.23L389.28 491.27L389.28 491.27L389.76 490.19L389.76 490.19L390.24 489.11L390.24 489.11L390.6 488.03L390.6 488.03L390.84 487.07L390.84 487.07L391.2 485.99L391.2 485.99L391.44 484.91L391.44 484.91L391.68 483.83L391.68 483.83L391.8 482.63L391.8 482.63L391.92 481.55L391.92 481.55L392.04 480.47L392.04 480.47L392.04 479.27L392.04 479.27L392.04 478.19L392.04 478.19L392.04 476.99L392.04 476.99L391.92 475.79L391.92 475.79L391.8 474.71L391.8 474.71L391.68 473.51L391.68 473.51L391.44 472.31L391.44 472.31L391.2 471.11L391.2 471.11L390.96 469.91L390.96 469.91L390.6 468.71L390.6 468.71L390.24 467.39L390.24 467.39L385.08 468.47L385.08 468.47L385.08 470.27L385.08 470.27L384.96 472.19L384.96 472.19L384.84 473.99L384.84 473.99L384.48 475.79L384.48 475.79L384.12 477.59L384.12 477.59L383.64 479.39L383.64 479.39L383.16 481.07L383.16 481.07L382.44 482.75L382.44 482.75L382.08 483.59L382.08 483.59L381.72 484.43L381.72 484.43L381.24 485.27L381.24 485.27L380.88 486.11L380.88 486.11L380.4 486.95L380.4 486.95L379.92 487.79L379.92 487.79L379.32 488.51L379.32 488.51L378.84 489.35L378.84 489.35L378.24 490.19L378.24 490.19L377.64 490.91L377.64 490.91L377.04 491.75L377.04 491.75L376.44 492.47L376.44 492.47L375.72 493.31L375.72 493.31L375.12 494.03L375.12 494.03L374.4 494.75L374.4 494.75L373.68 495.59L373.68 495.59L373.08 496.07L373.08 496.07L366.96 489.83L366.96 489.83L361.8 492.95L361.8 492.95L374.88 506.03L374.88 506.03L366 514.91L366 514.91L361.8 510.83L361.8 510.83L362.28 509.39L362.28 509.39L362.76 507.95L362.76 507.95L363.12 506.51L363.12 506.51L363.48 505.19L363.48 505.19L363.84 503.87L363.84 503.87L364.08 502.55L364.08 502.55L364.2 501.35L364.2 501.35L364.32 500.15L364.32 500.15L359.16 498.83L359.16 498.83L357.84 501.23L357.84 501.23L356.52 503.63L356.52 503.63L355.08 506.03L355.08 506.03L353.52 508.43L353.52 508.43L351.96 510.71L351.96 510.71L350.28 512.99L350.28 512.99L348.48 515.27L348.48 515.27L346.68 517.55z" stroke="none" fill="#C0C0C0" fill-rule="evenodd" fill-opacity="0.2745098" /><g transform="matrix(0.3595522 0 0 0.36 249.24 61.53003)"><g transform="matrix(1 0 0 1 0 0)"><image x="0" y="0" xlink:href="img_01.png" width="268" height="259" /></g></g><path id="17" transform="matrix(1 0 0 -1 0 839)" d="M170 281.15L417.95 281.15" stroke="#000000" stroke-width="0.72" fill="none" /><path id="27" transform="matrix(1 0 0 -1 0 839)" d="M170 243.95L402 243.95" stroke="#000000" stroke-width="0.72" fill="none" /><path id="39" transform="matrix(1 0 0 -1 0 839)" d="M170 206.75L417.95 206.75" stroke="#000000" stroke-width="0.72" fill="none" /><path id="57" transform="matrix(1 0 0 -1 0 839)" d="M186 169.55L458 169.55" stroke="#000000" stroke-width="0.72" fill="none" /><path id="71" transform="matrix(1 0 0 -1 0 839)" d="M138 132.35L462 132.35" stroke="#000000" stroke-width="0.72" fill="none" /></g></g></g></svg>