<svg xmlns="http://www.w3.org/2000/svg" xmlns:xlink="http://www.w3.org/1999/xlink" id="body_6" preserveAspectRatio="xMinYMin meet" viewBox="0 0 793 1121"><defs><clipPath id="1"><path id="" clip-rule="evenodd" transform="matrix(1 0 0 1 0 0)" d="M0 841L0 -0.9000244L0 -0.9000244L595.3 -0.9000244L595.3 -0.9000244L595.3 841L595.3 841L0 841z" /></clipPath><clipPath id="2"><path id="" clip-rule="evenodd" transform="matrix(1 0 0 1 0 0)" d="M0 -0.9000244L595.3 -0.9000244L595.3 -0.9000244L595.3 841L595.3 841L0 841z" /></clipPath><clipPath id="3"><path id="" clip-rule="evenodd" transform="matrix(1 0 0 1 0 0)" d="M0 -0.9000244L595.3 -0.9000244L595.3 -0.9000244L595.3 841L595.3 841L0 841z" /></clipPath><clipPath id="4"><path id="" clip-rule="evenodd" transform="matrix(1 0 0 1 0 0)" d="M261.55 780.65L333.7 780.65L333.7 780.65L333.7 792.3L333.7 792.3L261.55 792.3z" /></clipPath><clipPath id="5"><path id="" clip-rule="evenodd" transform="matrix(1 0 0 1 0 0)" d="M0 -0.9000244L595.3 -0.9000244L595.3 -0.9000244L595.3 841L595.3 841L0 841z" /></clipPath><clipPath id="6"><path id="" clip-rule="evenodd" transform="matrix(1 0 0 1 0 0)" d="M0 -0.9000244L595.3 -0.9000244L595.3 -0.9000244L595.3 841L595.3 841L0 841z" /></clipPath><clipPath id="7"><path id="" clip-rule="evenodd" transform="matrix(1 0 0 1 0 0)" d="M176.4 529.058L428.15 529.058L428.15 529.058L428.15 580.808L428.15 580.808L176.4 580.808z" /></clipPath><clipPath id="8"><path id="" clip-rule="evenodd" transform="matrix(1 0 0 1 0 0)" d="M0 -0.9000244L595.3 -0.9000244L595.3 -0.9000244L595.3 841L595.3 841L0 841z" /></clipPath><clipPath id="9"><path id="" clip-rule="evenodd" transform="matrix(1 0 0 1 0 0)" d="M0 -0.9000244L595.3 -0.9000244L595.3 -0.9000244L595.3 841L595.3 841L0 841z" /></clipPath><clipPath id="10"><path id="" clip-rule="evenodd" transform="matrix(1 0 0 1 0 0)" d="M163.928 667.147L291.228 667.147L291.228 667.147L291.228 731.4969L291.228 731.4969L163.928 731.4969z" /></clipPath><clipPath id="11"><path id="" clip-rule="evenodd" transform="matrix(1 0 0 1 0 0)" d="M0 -0.9000244L595.3 -0.9000244L595.3 -0.9000244L595.3 841L595.3 841L0 841z" /></clipPath><clipPath id="12"><path id="" clip-rule="evenodd" transform="matrix(1 0 0 1 0 0)" d="M304.747 667.147L425.247 667.147L425.247 667.147L425.247 731.4969L425.247 731.4969L304.747 731.4969z" /></clipPath><clipPath id="13"><path id="" clip-rule="evenodd" transform="matrix(1 0 0 1 0 0)" d="M0 -0.9000244L595.3 -0.9000244L595.3 -0.9000244L595.3 841L595.3 841L0 841z" /></clipPath></defs><g transform="matrix(1.333333 0 0 1.333333 0 0)"><g clip-path="url(#1)"><g clip-path="url(#2)"><path id="1" transform="matrix(1 0 0 -1 0 841)" d="M213.36 373.18L215.64 375.46L215.64 375.46L215.52 382.9L215.52 382.9L227.64 383.98L227.64 383.98L227.88 379.78L227.88 379.78L239.76 367.78L239.76 367.78L239.28 370.9L239.28 370.9L247.2 369.94L247.2 369.94L247.68 366.1L247.68 366.1L236.88 355.18L236.88 355.18L238.2 354.82L238.2 354.82L239.64 354.46L239.64 354.46L240.96 354.22L240.96 354.22L242.28 353.86L242.28 353.86L243.72 353.62L243.72 353.62L245.04 353.5L245.04 353.5L246.48 353.26L246.48 353.26L247.8 353.26L247.8 353.26L249.48 353.14L249.48 353.14L251.16 353.14L251.16 353.14L252.84 353.14L252.84 353.14L254.52 353.38L254.52 353.38L256.32 353.62L256.32 353.62L258.12 353.98L258.12 353.98L259.92 354.46L259.92 354.46L261.84 354.94L261.84 354.94L266.04 341.86L266.04 341.86L264.96 341.74L264.96 341.74L264 341.5L264 341.5L263.04 341.38L263.04 341.38L261.96 341.38L261.96 341.38L260.88 341.38L260.88 341.38L259.8 341.38L259.8 341.38L258.72 341.38L258.72 341.38L257.64 341.5L257.64 341.5L256.44 341.62L256.44 341.62L255.36 341.74L255.36 341.74L254.16 341.98L254.16 341.98L252.96 342.22L252.96 342.22L251.64 342.46L251.64 342.46L250.44 342.82L250.44 342.82L249.24 343.18L249.24 343.18L247.92 343.54L247.92 343.54L246 344.26L246 344.26L244.2 344.98L244.2 344.98L242.4 345.7L242.4 345.7L240.48 346.66L240.48 346.66L238.68 347.5L238.68 347.5L236.88 348.58L236.88 348.58L234.96 349.66L234.96 349.66L233.16 350.86L233.16 350.86L234 349.54L234 349.54L234.72 348.22L234.72 348.22L235.32 346.9L235.32 346.9L236.04 345.7L236.04 345.7L236.52 344.38L236.52 344.38L237 343.06L237 343.06L237.48 341.74L237.48 341.74L237.96 340.42L237.96 340.42L238.44 338.98L238.44 338.98L238.8 337.42L238.8 337.42L239.16 335.98L239.16 335.98L239.52 334.42L239.52 334.42L239.76 332.98L239.76 332.98L239.88 331.42L239.88 331.42L240.12 329.86L240.12 329.86L240.24 328.3L240.24 328.3L240.24 326.7401L240.24 326.7401L240.24 325.1801L240.24 325.1801L240.12 323.62L240.12 323.62L240 322.06L240 322.06L239.88 320.5L239.88 320.5L239.64 318.82L239.64 318.82L239.4 317.26L239.4 317.26L239.04 315.7L239.04 315.7L233.76 316.78L233.76 316.78L233.64 318.1L233.64 318.1L233.52 319.42L233.52 319.42L233.4 320.7401L233.4 320.7401L233.28 322.06L233.28 322.06L233.04 323.38L233.04 323.38L232.8 324.7L232.8 324.7L232.56 325.9L232.56 325.9L232.2 327.22L232.2 327.22L231.96 328.42L231.96 328.42L231.6 329.7401L231.6 329.7401L231.24 330.94L231.24 330.94L230.88 332.14L230.88 332.14L230.4 333.34L230.4 333.34L229.92 334.54L229.92 334.54L229.44 335.74L229.44 335.74L228.96 336.94L228.96 336.94L228.6 337.78L228.6 337.78L228.24 338.62L228.24 338.62L227.88 339.46L227.88 339.46L227.4 340.3L227.4 340.3L226.92 341.14L226.92 341.14L226.44 341.98L226.44 341.98L225.96 342.82L225.96 342.82L225.36 343.66L225.36 343.66L217.92 336.34L217.92 336.34L212.88 339.22L212.88 339.22L222 348.34L222 348.34L220.68 350.02L220.68 350.02L219.12 351.7L219.12 351.7L217.56 353.38L217.56 353.38L215.88 355.18L215.88 355.18L209.52 361.54L209.52 361.54L203.88 355.9L203.88 355.9L199.08 358.9L199.08 358.9L205.56 365.38L205.56 365.38L196.8 374.26L196.8 374.26L205.68 380.86L205.68 380.86L213.36 373.18M232.92 359.26L220.08 372.1L220.08 372.1L217.2 369.22L217.2 369.22L223.44 362.98L223.44 362.98L225.24 361.18L225.24 361.18L226.8 359.5L226.8 359.5L228.24 357.7L228.24 357.7L229.68 356.02L229.68 356.02L232.92 359.26zM178.2 355.78L186.6 362.38L186.6 362.38L194.76 354.22L194.76 354.22L195.72 357.46L195.72 357.46L198.24 356.74L198.24 356.74L200.64 356.02L200.64 356.02L202.92 355.3L202.92 355.3L205.08 354.58L205.08 354.58L207.12 353.98L207.12 353.98L209.16 353.26L209.16 353.26L210.96 352.54L210.96 352.54L212.64 351.82L212.64 351.82L209.76 342.58L209.76 342.58L207.24 344.38L207.24 344.38L204.6 346.18L204.6 346.18L201.96 347.98L201.96 347.98L199.32 349.66L199.32 349.66L235.68 313.3L235.68 313.3L229.2 304.78L229.2 304.78L178.2 355.78zM181.68 342.46L186.24 345.58L186.24 345.58L192.24 339.58L192.24 339.58L195.72 336.1L195.72 336.1L198.72 333.1L198.72 333.1L201.24 330.34L201.24 330.34L203.4 327.94L203.4 327.94L195.24 325.42L195.24 325.42L194.64 326.38L194.64 326.38L194.04 327.34L194.04 327.34L192.6 329.26L192.6 329.26L190.92 331.42L190.92 331.42L189.12 333.7L189.12 333.7L187.32 335.86L187.32 335.86L185.52 338.02L185.52 338.02L183.72 340.3L183.72 340.3L181.68 342.46z" stroke="none" fill="#C0C0C0" fill-rule="evenodd" fill-opacity="0.2745098" /><path id="2" transform="matrix(1 0 0 -1 0 841)" d="M281.64 413.5L281.52 419.26L281.52 419.26L291.12 419.62L291.12 419.62L291.12 414.94L291.12 414.94L278.76 402.58L278.76 402.58L285.36 395.98L285.36 395.98L295.92 406.66L295.92 406.66L296.28 412.42L296.28 412.42L306.12 412.66L306.12 412.66L306.24 407.38L306.24 407.38L290.16 391.18L290.16 391.18L301.44 379.9L301.44 379.9L294 370.18L294 370.18L281.52 382.66L281.52 382.66L262.44 363.58L262.44 363.58L256.56 367.3L256.56 367.3L276.72 387.46L276.72 387.46L270.12 393.94L270.12 393.94L253.2 377.02L253.2 377.02L247.8 387.34L247.8 387.34L243 396.94L243 396.94L236.04 389.98L236.04 389.98L231 393.22L231 393.22L240.24 402.46L240.24 402.46L237.72 407.74L237.72 407.74L235.32 412.66L235.32 412.66L245.16 419.5L245.16 419.5L249.12 411.34L249.12 411.34L270 432.34L270 432.34L270.24 437.86L270.24 437.86L279.48 438.1L279.48 438.1L279.48 433.42L279.48 433.42L251.76 405.7L251.76 405.7L258.96 390.82L258.96 390.82L266.16 398.02L266.16 398.02L257.4 406.66L257.4 406.66L267.12 414.22L267.12 414.22L274.68 406.66L274.68 406.66L281.64 413.5" stroke="none" fill="#C0C0C0" fill-rule="evenodd" fill-opacity="0.2745098" /><path id="3" transform="matrix(1 0 0 -1 0 841)" d="M298.2 455.26L318.12 475.06L318.12 475.06L314.64 478.54L314.64 478.54L294.84 458.62L294.84 458.62L298.2 455.26M305.64 447.82L325.56 467.74L325.56 467.74L321.96 471.22L321.96 471.22L302.16 451.42L302.16 451.42L305.64 447.82zM336.72 463.06L337.2 469.78L337.2 469.78L350.04 471.22L350.04 471.22L349.8 466.3L349.8 466.3L351.24 464.86L351.24 464.86L352.56 463.42L352.56 463.42L353.88 462.1L353.88 462.1L355.08 460.78L355.08 460.78L356.16 459.58L356.16 459.58L357.24 458.38L357.24 458.38L358.2 457.18L358.2 457.18L359.04 456.1L359.04 456.1L359.76 455.02L359.76 455.02L360.48 453.94L360.48 453.94L361.2 452.98L361.2 452.98L361.68 452.14L361.68 452.14L362.16 451.18L362.16 451.18L362.64 450.46L362.64 450.46L362.88 449.62L362.88 449.62L363.12 448.9L363.12 448.9L363.48 448.18L363.48 448.18L363.72 447.34L363.72 447.34L363.96 446.62L363.96 446.62L364.08 445.78L364.08 445.78L364.08 445.06L364.08 445.06L364.08 444.34L364.08 444.34L363.96 443.5L363.96 443.5L363.84 442.78L363.84 442.78L363.6 442.06L363.6 442.06L363.36 441.34L363.36 441.34L363 440.62L363 440.62L362.64 439.78L362.64 439.78L362.16 439.06L362.16 439.06L361.56 438.34L361.56 438.34L360.96 437.62L360.96 437.62L360.24 436.9L360.24 436.9L357.24 433.9L357.24 433.9L356.76 434.38L356.76 434.38L356.16 434.74L356.16 434.74L355.68 435.1L355.68 435.1L355.08 435.34L355.08 435.34L354.6 435.58L354.6 435.58L354 435.7L354 435.7L353.4 435.7L353.4 435.7L352.8 435.82L352.8 435.82L352.2 435.7L352.2 435.7L351.6 435.7L351.6 435.7L350.88 435.46L350.88 435.46L350.28 435.34L350.28 435.34L349.56 434.98L349.56 434.98L348.84 434.74L348.84 434.74L348.24 434.26L348.24 434.26L347.52 433.9L347.52 433.9L344.28 437.62L344.28 437.62L345.12 438.1L345.12 438.1L345.96 438.7L345.96 438.7L346.8 439.42L346.8 439.42L347.64 440.02L347.64 440.02L348.48 440.74L348.48 440.74L349.32 441.58L349.32 441.58L350.16 442.3L350.16 442.3L351 443.14L351 443.14L351.24 443.38L351.24 443.38L351.36 443.74L351.36 443.74L351.48 443.98L351.48 443.98L351.6 444.34L351.6 444.34L351.72 444.58L351.72 444.58L351.72 444.94L351.72 444.94L351.6 445.3L351.6 445.3L351.48 445.66L351.48 445.66L351.36 446.14L351.36 446.14L351.24 446.5L351.24 446.5L351 446.98L351 446.98L350.76 447.34L350.76 447.34L350.4 447.82L350.4 447.82L350.04 448.3L350.04 448.3L349.56 448.78L349.56 448.78L349.2 449.26L349.2 449.26L340.8 458.74L340.8 458.74L339.84 457.78L339.84 457.78L340.44 456.58L340.44 456.58L341.04 455.26L341.04 455.26L341.52 454.06L341.52 454.06L342 452.86L342 452.86L342.36 451.54L342.36 451.54L342.72 450.34L342.72 450.34L343.08 449.14L343.08 449.14L343.32 447.94L343.32 447.94L343.56 446.74L343.56 446.74L343.68 445.54L343.68 445.54L343.8 444.22L343.8 444.22L343.92 443.02L343.92 443.02L343.92 441.82L343.92 441.82L343.92 440.62L343.92 440.62L343.8 439.42L343.8 439.42L343.68 438.22L343.68 438.22L343.56 436.78L343.56 436.78L343.44 435.34L343.44 435.34L343.2 433.78L343.2 433.78L342.96 432.22L342.96 432.22L342.6 430.66L342.6 430.66L342.24 428.98L342.24 428.98L341.76 427.42L341.76 427.42L341.28 425.74L341.28 425.74L340.68 424.06L340.68 424.06L340.08 422.38L340.08 422.38L339.36 420.7L339.36 420.7L338.52 418.9L338.52 418.9L337.68 417.22L337.68 417.22L336.84 415.42L336.84 415.42L335.88 413.62L335.88 413.62L334.8 411.7L334.8 411.7L330.36 413.02L330.36 413.02L331.2 416.02L331.2 416.02L332.04 418.78L332.04 418.78L332.64 421.42L332.64 421.42L333.24 423.82L333.24 423.82L333.6 426.22L333.6 426.22L333.96 428.38L333.96 428.38L334.2 430.54L334.2 430.54L334.32 432.46L334.32 432.46L334.44 433.42L334.44 433.42L334.44 434.38L334.44 434.38L334.44 435.46L334.44 435.46L334.44 436.42L334.44 436.42L334.32 437.5L334.32 437.5L334.2 438.46L334.2 438.46L334.08 439.54L334.08 439.54L333.96 440.62L333.96 440.62L333.72 441.7L333.72 441.7L333.48 442.66L333.48 442.66L333.24 443.74L333.24 443.74L333 444.94L333 444.94L332.64 446.02L332.64 446.02L332.28 447.1L332.28 447.1L331.8 448.18L331.8 448.18L331.44 449.38L331.44 449.38L329.28 447.22L329.28 447.22L329.4 444.7L329.4 444.7L329.64 442.18L329.64 442.18L329.64 439.78L329.64 439.78L329.64 437.26L329.64 437.26L329.52 434.86L329.52 434.86L329.4 432.58L329.4 432.58L329.16 430.18L329.16 430.18L328.92 427.9L328.92 427.9L328.56 425.62L328.56 425.62L328.08 423.46L328.08 423.46L327.6 421.18L327.6 421.18L327 419.02L327 419.02L326.4 416.86L326.4 416.86L325.68 414.82L325.68 414.82L324.84 412.66L324.84 412.66L324 410.62L324 410.62L318.84 412.06L318.84 412.06L319.32 415.66L319.32 415.66L319.8 419.26L319.8 419.26L320.16 422.74L320.16 422.74L320.4 425.98L320.4 425.98L320.52 429.22L320.52 429.22L320.64 432.34L320.64 432.34L320.52 435.46L320.52 435.46L320.52 436.9L320.52 436.9L320.4 438.34L320.4 438.34L318 435.94L318 435.94L318 434.86L318 434.86L317.88 433.78L317.88 433.78L317.76 432.7L317.76 432.7L317.52 431.62L317.52 431.62L317.4 430.42L317.4 430.42L317.16 429.34L317.16 429.34L316.92 428.26L316.92 428.26L316.56 427.18L316.56 427.18L316.2 426.1L316.2 426.1L315.84 425.02L315.84 425.02L315.48 423.82L315.48 423.82L315 422.74L315 422.74L314.64 421.66L314.64 421.66L314.04 420.58L314.04 420.58L313.56 419.5L313.56 419.5L312.96 418.42L312.96 418.42L308.04 419.86L308.04 419.86L308.28 421.18L308.28 421.18L308.52 422.38L308.52 422.38L308.64 423.58L308.64 423.58L308.88 424.78L308.88 424.78L308.88 425.98L308.88 425.98L309 427.18L309 427.18L309 428.38L309 428.38L309.12 429.58L309.12 429.58L309 430.66L309 430.66L309 431.86L309 431.86L308.88 432.94L308.88 432.94L308.76 434.14L308.76 434.14L308.64 435.22L308.64 435.22L308.52 436.3L308.52 436.3L308.28 437.38L308.28 437.38L308.04 438.46L308.04 438.46L303.84 433.18L303.84 433.18L280.2 456.7L280.2 456.7L289.56 464.02L289.56 464.02L290.64 462.82L290.64 462.82L310.32 482.62L310.32 482.62L311.04 489.1L311.04 489.1L323.64 490.3L323.64 490.3L324.12 485.98L324.12 485.98L338.52 471.58L338.52 471.58L331.2 462.1L331.2 462.1L329.64 463.54L329.64 463.54L316.68 450.58L316.68 450.58L317.16 449.02L317.16 449.02L317.52 447.46L317.52 447.46L317.76 445.9L317.76 445.9L318 444.46L318 444.46L336.72 463.06z" stroke="none" fill="#C0C0C0" fill-rule="evenodd" fill-opacity="0.2745098" /><path id="4" transform="matrix(1 0 0 -1 0 841)" d="M352.8 503.14L356.88 504.46L356.88 504.46L370.2 475.66L370.2 475.66L371.64 475.66L371.64 475.66L373.2 475.66L373.2 475.66L374.88 475.54L374.88 475.54L376.56 475.42L376.56 475.42L378.36 475.3L378.36 475.3L380.28 475.06L380.28 475.06L382.2 474.7L382.2 474.7L384.24 474.46L384.24 474.46L382.8 458.74L382.8 458.74L381.48 459.58L381.48 459.58L380.16 460.42L380.16 460.42L378.84 461.26L378.84 461.26L377.52 461.98L377.52 461.98L376.2 462.7L376.2 462.7L374.88 463.42L374.88 463.42L373.56 464.02L373.56 464.02L372.24 464.62L372.24 464.62L370.92 465.22L370.92 465.22L369.6 465.82L369.6 465.82L368.28 466.3L368.28 466.3L366.96 466.78L366.96 466.78L365.64 467.26L365.64 467.26L364.32 467.62L364.32 467.62L363 467.98L363 467.98L361.68 468.34L361.68 468.34L352.8 503.14M339.12 493.42L341.16 493.9L341.16 493.9L343.08 494.26L343.08 494.26L344.88 494.5L344.88 494.5L346.8 494.74L346.8 494.74L348.48 494.98L348.48 494.98L350.16 494.98L350.16 494.98L351.84 495.1L351.84 495.1L353.4 494.98L353.4 494.98L353.88 483.46L353.88 483.46L351.84 484.3L351.84 484.3L349.8 485.02L349.8 485.02L347.88 485.74L347.88 485.74L345.96 486.34L345.96 486.34L344.16 486.82L344.16 486.82L342.36 487.3L342.36 487.3L340.68 487.66L340.68 487.66L339 487.9L339 487.9L339.12 493.42zM333.96 508.9L336 509.5L336 509.5L338.04 509.98L338.04 509.98L339.96 510.46L339.96 510.46L341.76 510.94L341.76 510.94L343.56 511.18L343.56 511.18L345.24 511.42L345.24 511.42L346.92 511.66L346.92 511.66L348.48 511.78L348.48 511.78L348.96 500.02L348.96 500.02L346.92 500.62L346.92 500.62L344.88 501.22L344.88 501.22L342.96 501.82L342.96 501.82L341.04 502.3L341.04 502.3L339.12 502.66L339.12 502.66L337.32 502.9L337.32 502.9L335.64 503.14L335.64 503.14L333.84 503.26L333.84 503.26L333.96 508.9zM348.12 518.86L357.96 524.02L357.96 524.02L358.8 522.46L358.8 522.46L359.64 520.9L359.64 520.9L360.24 519.46L360.24 519.46L360.96 517.9L360.96 517.9L363.36 520.3L363.36 520.3L353.76 529.9L353.76 529.9L362.4 536.38L362.4 536.38L370.92 527.86L370.92 527.86L373.8 530.86L373.8 530.86L373.8 536.74L373.8 536.74L383.52 537.1L383.52 537.1L383.52 532.42L383.52 532.42L374.88 523.9L374.88 523.9L383.76 514.9L383.76 514.9L388.68 519.8201L388.68 519.8201L388.8 525.58L388.8 525.58L398.16 525.7L398.16 525.7L398.28 521.14L398.28 521.14L391.68 514.54L391.68 514.54L406.32 499.9L406.32 499.9L406.8 499.54L406.8 499.54L407.04 499.3L407.04 499.3L407.28 499.3L407.28 499.3L407.366 499.225L407.366 499.225L407.472 499.244L407.472 499.244L407.52 499.3L407.52 499.3L408.12 499.9L408.12 499.9L408.48 500.26L408.48 500.26L408.72 500.5L408.72 500.5L408.84 500.86L408.84 500.86L408.96 501.1L408.96 501.1L409.08 501.46L409.08 501.46L409.08 501.7L409.08 501.7L408.96 501.94L408.96 501.94L408.84 502.18L408.84 502.18L404.28 509.02L404.28 509.02L407.88 511.66L407.88 511.66L408.96 510.34L408.96 510.34L410.04 509.38L410.04 509.38L410.52 508.78L410.52 508.78L411.12 508.3L411.12 508.3L411.72 507.82L411.72 507.82L412.2 507.46L412.2 507.46L412.8 507.1L412.8 507.1L413.28 506.74L413.28 506.74L413.76 506.38L413.76 506.38L414.36 506.14L414.36 506.14L414.84 505.9L414.84 505.9L415.32 505.78L415.32 505.78L415.92 505.54L415.92 505.54L416.4 505.42L416.4 505.42L416.88 505.42L416.88 505.42L417.36 505.42L417.36 505.42L417.84 505.42L417.84 505.42L418.32 505.42L418.32 505.42L418.68 504.7L418.68 504.7L418.92 503.98L418.92 503.98L419.16 503.26L419.16 503.26L419.28 502.54L419.28 502.54L419.4 501.94L419.4 501.94L419.52 501.22L419.52 501.22L419.52 500.5L419.52 500.5L419.4 499.9L419.4 499.9L419.4 499.3L419.4 499.3L419.16 498.7L419.16 498.7L418.92 498.1L418.92 498.1L418.68 497.5L418.68 497.5L418.32 496.9L418.32 496.9L417.96 496.3L417.96 496.3L417.48 495.82L417.48 495.82L417 495.22L417 495.22L411.12 489.34L411.12 489.34L410.64 488.86L410.64 488.86L410.16 488.5L410.16 488.5L409.56 488.14L409.56 488.14L409.08 487.9L409.08 487.9L408.48 487.66L408.48 487.66L407.88 487.54L407.88 487.54L407.28 487.54L407.28 487.54L406.68 487.54L406.68 487.54L406.08 487.66L406.08 487.66L405.48 487.78L405.48 487.78L404.88 488.02L404.88 488.02L404.28 488.38L404.28 488.38L403.56 488.74L403.56 488.74L402.96 489.1L402.96 489.1L402.24 489.7L402.24 489.7L401.52 490.3L401.52 490.3L384.48 507.34L384.48 507.34L381.72 504.58L381.72 504.58L383.04 503.26L383.04 503.26L384 502.42L384 502.42L384.84 501.46L384.84 501.46L385.68 500.5L385.68 500.5L386.4 499.54L386.4 499.54L387.12 498.58L387.12 498.58L387.84 497.62L387.84 497.62L388.56 496.66L388.56 496.66L389.16 495.58L389.16 495.58L389.76 494.62L389.76 494.62L390.24 493.54L390.24 493.54L390.72 492.58L390.72 492.58L391.2 491.5L391.2 491.5L391.56 490.54L391.56 490.54L391.92 489.46L391.92 489.46L392.28 488.38L392.28 488.38L392.64 487.3L392.64 487.3L392.88 486.22L392.88 486.22L393 485.14L393 485.14L393.24 484.06L393.24 484.06L393.36 482.86L393.36 482.86L393.36 481.78L393.36 481.78L393.48 480.7L393.48 480.7L393.48 479.5L393.48 479.5L393.48 478.3L393.48 478.3L393.36 477.22L393.36 477.22L393.24 476.02L393.24 476.02L393.12 474.82L393.12 474.82L392.88 473.62L392.88 473.62L392.64 472.42L392.64 472.42L392.4 471.22L392.4 471.22L392.04 470.02L392.04 470.02L391.68 468.82L391.68 468.82L386.4 469.78L386.4 469.78L386.52 471.7L386.52 471.7L386.4 473.5L386.4 473.5L386.16 475.42L386.16 475.42L385.92 477.22L385.92 477.22L385.56 478.9L385.56 478.9L385.08 480.7L385.08 480.7L384.48 482.38L384.48 482.38L383.88 484.18L383.88 484.18L383.52 485.02L383.52 485.02L383.04 485.86L383.04 485.86L382.68 486.7L382.68 486.7L382.2 487.42L382.2 487.42L381.72 488.26L381.72 488.26L381.24 489.1L381.24 489.1L380.76 489.94L380.76 489.94L380.28 490.66L380.28 490.66L379.68 491.5L379.68 491.5L379.08 492.34L379.08 492.34L378.48 493.06L378.48 493.06L377.88 493.9L377.88 493.9L377.16 494.62L377.16 494.62L376.44 495.34L376.44 495.34L375.72 496.18L375.72 496.18L375 496.9L375 496.9L374.52 497.38L374.52 497.38L368.4 491.14L368.4 491.14L363.24 494.38L363.24 494.38L376.32 507.46L376.32 507.46L367.44 516.34L367.44 516.34L363.24 512.14L363.24 512.14L363.72 510.7L363.72 510.7L364.2 509.26L364.2 509.26L364.56 507.94L364.56 507.94L364.92 506.5L364.92 506.5L365.16 505.18L365.16 505.18L365.4 503.98L365.4 503.98L365.64 502.66L365.64 502.66L365.76 501.46L365.76 501.46L360.6 500.14L360.6 500.14L359.28 502.54L359.28 502.54L357.96 505.06L357.96 505.06L356.4 507.34L356.4 507.34L354.96 509.74L354.96 509.74L353.28 512.02L353.28 512.02L351.72 514.42L351.72 514.42L349.92 516.58L349.92 516.58L348.12 518.86z" stroke="none" fill="#C0C0C0" fill-rule="evenodd" fill-opacity="0.2745098" /></g><g clip-path="url(#3)"><g clip-path="url(#4)"></g></g><g clip-path="url(#5)"><path id="12" transform="matrix(1 0 0 -1 0 841)" d="M297.3 351.8C 397.554 351.8 480.013 295.114 489.929 222.473L489.929 222.473L490.25 217.7401L490.25 217.7401L104.35 217.7401L104.35 217.7401L104.671 222.473C 114.587 295.114 197.046 351.8 297.3 351.8" stroke="none" fill="#5B9BD5" fill-rule="evenodd" /><path id="13" transform="matrix(1 0 0 -1 0 841)" d="M297.298 351.3L297.302 351.3L294.956 351.29L294.96 351.29L292.62 351.259L292.625 351.259L290.292 351.207L290.296 351.207L287.97 351.135L287.975 351.136L285.656 351.043L285.66 351.044L283.349 350.931L283.353 350.931L281.049 350.799L281.054 350.799L278.757 350.647L278.762 350.647L276.473 350.475L276.477 350.475L274.197 350.283L274.201 350.284L271.928 350.072L271.933 350.073L269.668 349.841L269.673 349.842L267.417 349.592L267.421 349.592L265.174 349.322L265.178 349.323L262.939 349.034L262.944 349.035L260.714 348.727L260.718 348.728L258.498 348.401L258.502 348.402L256.29 348.056L256.295 348.057L254.092 347.693L254.097 347.694L251.904 347.311L251.908 347.312L249.725 346.911L249.729 346.912L247.556 346.492L247.56 346.493L245.397 346.055L245.401 346.056L243.248 345.601L243.253 345.602L241.109 345.128L241.114 345.129L238.981 344.638L238.986 344.639L236.864 344.129L236.868 344.13L234.757 343.604L234.761 343.605L232.661 343.06L232.665 343.062L230.576 342.5L230.58 342.501L228.502 341.922L228.507 341.923L226.44 341.327L226.444 341.329L224.389 340.716L224.393 340.717L222.35 340.087L222.354 340.088L220.323 339.441L220.327 339.443L218.307 338.779L218.312 338.781L216.304 338.101L216.309 338.102L214.313 337.406L214.318 337.407L212.335 336.694L212.339 336.696L210.369 335.967L210.374 335.968L208.416 335.223L208.421 335.225L206.476 334.464L206.481 334.466L204.549 333.689L204.554 333.69L202.636 332.898L202.64 332.899L200.736 332.091L200.74 332.093L198.849 331.269L198.853 331.271L196.976 330.432L196.98 330.434L195.117 329.579L195.121 329.5811L193.272 328.711L193.276 328.713L191.441 327.829L191.445 327.8311L189.624 326.931L189.629 326.933L187.822 326.019L187.827 326.021L186.035 325.092L186.039 325.094L184.262 324.15L184.267 324.152L182.505 323.194L182.509 323.196L180.762 322.224L180.767 322.226L179.035 321.239L179.04 321.242L177.324 320.241L177.328 320.243L175.628 319.228L175.632 319.231L173.947 318.202L173.952 318.205L172.283 317.162L172.287 317.165L170.634 316.109L170.639 316.111L169.002 315.0421L169.007 315.044L167.386 313.961L167.391 313.9641L165.787 312.868L165.792 312.871L164.205 311.761L164.209 311.764L162.639 310.6411L162.643 310.644L161.09 309.508L161.095 309.512L159.559 308.363L159.563 308.366L158.045 307.205L158.049 307.208L156.548 306.034L156.552 306.038L155.069 304.851L155.073 304.855L153.608 303.656L153.612 303.66L152.164 302.449L152.168 302.452L150.739 301.229L150.743 301.233L149.332 299.997L149.336 300.001L147.943 298.754L147.947 298.758L146.573 297.499L146.577 297.5031L145.222 296.232L145.226 296.236L143.889 294.954L143.894 294.958L142.576 293.665L142.58 293.669L141.282 292.364L141.286 292.368L140.007 291.052L140.011 291.057L138.752 289.729L138.756 289.734L137.516 288.396L137.52 288.4L136.3 287.051L136.304 287.056L135.104 285.696L135.108 285.701L133.928 284.33L133.932 284.335L132.773 282.954L132.777 282.959L131.637 281.5681L131.641 281.573L130.523 280.171L130.527 280.176L129.429 278.765L129.433 278.77L128.356 277.348L128.36 277.353L127.304 275.921L127.308 275.927L126.274 274.485L126.277 274.491L125.264 273.039L125.268 273.045L124.277 271.584L124.28 271.59L123.31 270.12L123.314 270.125L122.366 268.646L122.37 268.651L121.444 267.163L121.447 267.168L120.544 265.671L120.547 265.677L119.666 264.17L119.669 264.176L118.81 262.66L118.814 262.666L117.977 261.142L117.981 261.148L117.167 259.6151L117.17 259.621L116.38 258.08L116.383 258.086L115.616 256.536L115.619 256.5421L114.875 254.984L114.878 254.9901L114.157 253.424L114.16 253.431L113.463 251.856L113.466 251.863L112.793 250.28L112.795 250.287L112.146 248.697L112.149 248.704L111.523 247.106L111.526 247.113L110.925 245.507L110.927 245.514L110.351 243.901L110.353 243.908L109.801 242.288L109.803 242.295L109.276 240.6671L109.278 240.674L108.775 239.04L108.777 239.047L108.3 237.405L108.302 237.412L107.849 235.764L107.851 235.771L107.424 234.116L107.426 234.123L107.024 232.461L107.026 232.469L106.65 230.8L106.651 230.808L106.301 229.133L106.303 229.14L105.978 227.459L105.98 227.467L105.681 225.7791L105.683 225.787L105.411 224.093L105.412 224.101L105.166 222.401L105.17 222.439L104.849 217.7061L104.35 218.2401L490.25 218.2401L489.751 217.7061L489.43 222.439L489.434 222.401L489.188 224.101L489.189 224.093L488.917 225.787L488.919 225.7791L488.62 227.467L488.622 227.459L488.297 229.14L488.299 229.133L487.949 230.808L487.95 230.8L487.574 232.469L487.576 232.461L487.174 234.123L487.176 234.116L486.749 235.771L486.751 235.764L486.298 237.412L486.3 237.405L485.822 239.047L485.825 239.04L485.322 240.674L485.324 240.6671L484.797 242.295L484.799 242.288L484.247 243.908L484.249 243.901L483.672 245.514L483.675 245.507L483.074 247.113L483.077 247.106L482.451 248.704L482.454 248.697L481.805 250.287L481.807 250.28L481.134 251.863L481.137 251.856L480.44 253.431L480.443 253.424L479.722 254.9901L479.725 254.984L478.981 256.5421L478.984 256.536L478.217 258.086L478.22 258.08L477.43 259.621L477.433 259.6151L476.619 261.148L476.623 261.142L475.786 262.666L475.79 262.66L474.931 264.176L474.934 264.17L474.053 265.677L474.056 265.671L473.153 267.168L473.156 267.163L472.23 268.651L472.234 268.646L471.286 270.125L471.289 270.12L470.32 271.59L470.323 271.584L469.332 273.045L469.336 273.039L468.323 274.491L468.326 274.485L467.292 275.927L467.296 275.921L466.24 277.353L466.244 277.348L465.167 278.77L465.171 278.765L464.073 280.176L464.077 280.171L462.959 281.573L462.962 281.5681L461.823 282.959L461.827 282.954L460.668 284.335L460.672 284.33L459.492 285.701L459.496 285.696L458.296 287.056L458.3 287.051L457.08 288.4L457.084 288.396L455.844 289.734L455.848 289.729L454.589 291.057L454.593 291.052L453.314 292.368L453.318 292.364L452.02 293.669L452.024 293.665L450.706 294.958L450.71 294.954L449.374 296.236L449.378 296.232L448.022 297.5031L448.027 297.499L446.652 298.758L446.657 298.754L445.264 300.001L445.268 299.997L443.857 301.233L443.861 301.229L442.431 302.452L442.436 302.449L440.988 303.66L440.992 303.656L439.527 304.855L439.531 304.851L438.048 306.038L438.052 306.034L436.551 307.208L436.555 307.205L435.037 308.366L435.041 308.363L433.505 309.512L433.51 309.508L431.957 310.644L431.961 310.6411L430.391 311.764L430.395 311.761L428.808 312.871L428.813 312.868L427.209 313.9641L427.213 313.961L425.593 315.044L425.598 315.0421L423.961 316.111L423.966 316.109L422.313 317.165L422.317 317.162L420.648 318.205L420.653 318.202L418.968 319.231L418.972 319.228L417.272 320.243L417.276 320.241L415.56 321.242L415.565 321.239L413.833 322.226L413.837 322.224L412.091 323.196L412.095 323.194L410.333 324.152L410.337 324.15L408.561 325.094L408.565 325.092L406.773 326.021L406.778 326.019L404.971 326.933L404.975 326.931L403.155 327.8311L403.159 327.829L401.324 328.713L401.328 328.711L399.479 329.5811L399.483 329.579L397.62 330.434L397.624 330.432L395.747 331.271L395.751 331.269L393.86 332.093L393.864 332.091L391.96 332.899L391.964 332.898L390.046 333.69L390.05 333.689L388.119 334.466L388.124 334.464L386.179 335.225L386.184 335.223L384.226 335.968L384.231 335.967L382.26 336.696L382.265 336.694L380.282 337.407L380.286 337.406L378.291 338.102L378.296 338.101L376.288 338.781L376.293 338.779L374.273 339.443L374.277 339.441L372.246 340.088L372.25 340.087L370.206 340.717L370.211 340.716L368.156 341.329L368.16 341.327L366.093 341.923L366.098 341.922L364.02 342.501L364.024 342.5L361.935 343.062L361.939 343.06L359.839 343.605L359.843 343.604L357.732 344.13L357.736 344.129L355.614 344.639L355.619 344.638L353.486 345.129L353.49 345.128L351.347 345.602L351.352 345.601L349.198 346.056L349.203 346.055L347.039 346.493L347.044 346.492L344.87 346.912L344.875 346.911L342.692 347.312L342.696 347.311L340.503 347.694L340.508 347.693L338.305 348.057L338.31 348.056L336.098 348.402L336.102 348.401L333.881 348.728L333.886 348.727L331.656 349.035L331.66 349.034L329.422 349.323L329.426 349.322L327.179 349.592L327.183 349.592L324.927 349.842L324.931 349.841L322.667 350.073L322.671 350.072L320.399 350.284L320.403 350.283L318.122 350.475L318.127 350.475L315.838 350.647L315.843 350.647L313.546 350.799L313.551 350.799L311.247 350.931L311.251 350.931L308.939 351.044L308.944 351.043L306.625 351.136L306.63 351.135L304.304 351.207L304.308 351.207L301.975 351.259L301.979 351.259L299.64 351.29L299.644 351.29L297.298 351.3M299.651 352.29L301.995 352.259L304.332 352.207L306.663 352.135L308.986 352.042L311.302 351.93L313.61 351.797L315.911 351.644L318.204 351.472L320.489 351.28L322.766 351.068L325.035 350.836L327.296 350.585L329.547 350.315L331.791 350.026L334.025 349.717L336.25 349.39L338.466 349.044L340.673 348.679L342.87 348.296L345.058 347.894L347.235 347.474L349.403 347.035L351.561 346.579L353.708 346.104L355.845 345.612L357.972 345.101L360.087 344.573L362.192 344.028L364.286 343.465L366.368 342.885L368.439 342.288L370.499 341.673L372.547 341.042L374.583 340.394L376.607 339.729L378.619 339.047L380.618 338.349L382.605 337.635L384.58 336.904L386.541 336.157L388.49 335.394L390.426 334.615L392.348 333.821L394.257 333.011L396.153 332.185L398.034 331.344L399.902 330.487L401.756 329.6151L403.595 328.728L405.421 327.826L407.231 326.91L409.027 325.978L410.809 325.032L412.575 324.071L414.326 323.096L416.062 322.107L417.782 321.103L419.487 320.086L421.176 319.054L422.849 318.009L424.506 316.95L426.147 315.877L427.771 314.791L429.379 313.692L430.97 312.579L432.545 311.453L434.102 310.314L435.642 309.162L437.165 307.998L438.67 306.82L440.158 305.631L441.628 304.428L443.08 303.2141L444.513 301.987L445.929 300.748L447.326 299.497L448.704 298.234L450.064 296.96L451.405 295.674L452.727 294.376L454.029 293.067L455.312 291.747L456.576 290.416L457.82 289.073L459.044 287.72L460.248 286.355L461.432 284.98L462.595 283.595L463.738 282.199L464.861 280.7921L465.962 279.376L467.043 277.949L468.102 276.512L469.141 275.066L470.157 273.609L471.153 272.143L472.126 270.6671L473.078 269.182L474.007 267.688L474.914 266.184L475.799 264.672L476.661 263.15L477.501 261.62L478.318 260.08L479.111 258.533L479.882 256.976L480.629 255.412L481.353 253.8391L482.053 252.258L482.729 250.668L483.381 249.071L484.009 247.467L484.613 245.854L485.192 244.234L485.747 242.607L486.277 240.972L486.782 239.33L487.261 237.681L487.716 236.025L488.145 234.362L488.549 232.692L488.927 231.0161L489.279 229.334L489.604 227.645L489.904 225.949L490.177 224.248L490.426 222.526L490.785 217.2401L103.815 217.2401L104.174 222.526L104.423 224.248L104.696 225.949L104.996 227.645L105.321 229.334L105.673 231.0161L106.051 232.692L106.455 234.362L106.884 236.025L107.339 237.681L107.818 239.33L108.323 240.972L108.853 242.607L109.408 244.234L109.987 245.854L110.591 247.467L111.219 249.071L111.871 250.668L112.547 252.258L113.247 253.8391L113.971 255.412L114.718 256.976L115.488 258.533L116.282 260.08L117.099 261.62L117.938 263.15L118.801 264.672L119.686 266.184L120.593 267.688L121.522 269.182L122.474 270.6671L123.447 272.143L124.443 273.609L125.459 275.066L126.498 276.512L127.557 277.949L128.638 279.376L129.739 280.7921L130.862 282.199L132.005 283.595L133.168 284.98L134.352 286.355L135.556 287.72L136.78 289.073L138.024 290.416L139.288 291.747L140.571 293.067L141.873 294.376L143.195 295.674L144.536 296.96L145.896 298.234L147.274 299.497L148.671 300.748L150.087 301.987L151.52 303.2141L152.972 304.428L154.442 305.631L155.93 306.82L157.435 307.998L158.958 309.162L160.498 310.314L162.055 311.453L163.629 312.579L165.221 313.692L166.828 314.791L168.453 315.877L170.094 316.95L171.751 318.009L173.424 319.054L175.113 320.086L176.818 321.103L178.538 322.107L180.274 323.096L182.025 324.071L183.791 325.032L185.572 325.978L187.368 326.91L189.179 327.826L191.004 328.728L192.844 329.6151L194.698 330.487L196.566 331.344L198.447 332.185L200.343 333.011L202.252 333.821L204.174 334.615L206.11 335.394L208.058 336.157L210.02 336.904L211.995 337.635L213.982 338.349L215.981 339.047L217.993 339.729L220.017 340.394L222.053 341.042L224.101 341.673L226.161 342.288L228.232 342.885L230.314 343.465L232.408 344.028L234.512 344.573L236.628 345.101L238.755 345.612L240.891 346.104L243.039 346.579L245.197 347.035L247.364 347.474L249.542 347.894L251.73 348.296L253.927 348.679L256.134 349.044L258.35 349.39L260.575 349.717L262.809 350.026L265.052 350.315L267.304 350.585L269.565 350.836L271.834 351.068L274.111 351.28L276.396 351.472L278.689 351.644L280.99 351.797L283.298 351.93L285.614 352.042L287.937 352.135L290.268 352.207L292.605 352.259L294.949 352.29L297.3 352.3L299.651 352.29z" stroke="none" fill="#41719C" fill-rule="nonzero" /><path id="14" transform="matrix(1 0 0 -1 0 841)" d="M184.2 209.98C 184.238 228.198 204.079 242.959 228.555 242.959C 253.03 242.959 272.871 228.198 272.871 209.988C 272.871 191.7791 253.03 177.018 228.555 177.018C 204.079 177.018 184.238 191.7791 184.2 209.98" stroke="none" fill="#5B9BD5" fill-rule="evenodd" /><path id="15" transform="matrix(1 0 0 -1 0 841)" d="M191.737 209.861L191.737 210.116L191.751 209.265L191.743 209.52L191.786 208.674L191.769 208.928L191.84 208.088L191.814 208.34L191.914 207.506L191.88 207.756L192.007 206.928L191.965 207.175L192.119 206.354L192.069 206.598L192.251 205.782L192.193 206.022L192.401 205.2141L192.337 205.45L192.571 204.649L192.499 204.88L192.76 204.086L192.682 204.312L192.967 203.526L192.883 203.747L193.194 202.968L193.104 203.184L193.441 202.413L193.345 202.623L193.706 201.861L193.606 202.065L193.991 201.312L193.886 201.509L194.295 200.765L194.186 200.9561L194.618 200.221L194.505 200.406L194.961 199.681L194.845 199.86L195.323 199.144L195.204 199.317L195.705 198.611L195.583 198.778L196.105 198.082L195.981 198.243L196.526 197.558L196.399 197.713L196.965 197.038L196.837 197.187L197.424 196.524L197.294 196.6671L197.901 196.015L197.77 196.152L198.398 195.512L198.265 195.644L198.913 195.015L198.779 195.142L199.447 194.525L199.312 194.647L199.999 194.0421L199.863 194.159L200.569 193.567L200.433 193.678L201.158 193.099L201.021 193.2061L201.764 192.64L201.626 192.742L202.387 192.19L202.249 192.288L203.027 191.749L202.889 191.842L203.685 191.317L203.546 191.406L204.359 190.895L204.22 190.98L205.049 190.483L204.91 190.565L205.755 190.082L205.616 190.16L206.477 189.6931L206.338 189.7661L207.215 189.314L207.075 189.384L207.967 188.948L207.828 189.014L208.734 188.593L208.594 188.656L209.515 188.251L209.376 188.311L210.311 187.922L210.171 187.978L211.12 187.606L210.98 187.659L211.942 187.304L211.803 187.354L212.778 187.015L212.638 187.062L213.626 186.7401L213.486 186.785L214.486 186.48L214.346 186.522L215.358 186.235L215.218 186.273L216.242 186.005L216.102 186.04L217.137 185.79L216.997 185.823L218.043 185.591L217.903 185.621L218.959 185.408L218.819 185.435L219.886 185.241L219.745 185.265L220.822 185.091L220.682 185.113L221.768 184.958L221.627 184.976L222.723 184.841L222.582 184.857L223.687 184.742L223.546 184.756L224.659 184.661L224.518 184.672L225.639 184.598L225.498 184.606L226.627 184.552L226.486 184.558L227.623 184.525L227.481 184.528L228.625 184.517L228.484 184.517L229.628 184.528L229.486 184.525L230.623 184.558L230.482 184.552L231.611 184.606L231.47 184.598L232.591 184.672L232.45 184.661L233.563 184.756L233.422 184.742L234.527 184.857L234.386 184.841L235.482 184.976L235.341 184.958L236.427 185.113L236.287 185.091L237.364 185.265L237.223 185.241L238.29 185.435L238.15 185.408L239.206 185.621L239.066 185.591L240.112 185.823L239.972 185.79L241.007 186.04L240.867 186.005L241.891 186.273L241.751 186.235L242.763 186.522L242.623 186.48L243.623 186.785L243.483 186.7401L244.471 187.062L244.331 187.015L245.307 187.354L245.167 187.304L246.129 187.659L245.989 187.606L246.938 187.978L246.798 187.922L247.733 188.311L247.594 188.251L248.515 188.656L248.375 188.593L249.282 189.014L249.142 188.948L250.034 189.384L249.895 189.314L250.771 189.7661L250.632 189.6931L251.493 190.16L251.354 190.082L252.199 190.565L252.06 190.483L252.889 190.98L252.75 190.895L253.563 191.406L253.424 191.317L254.22 191.842L254.082 191.749L254.86 192.288L254.722 192.19L255.483 192.742L255.346 192.64L256.088 193.2061L255.951 193.099L256.676 193.678L256.54 193.567L257.246 194.159L257.11 194.0421L257.797 194.647L257.662 194.525L258.33 195.142L258.196 195.015L258.844 195.644L258.711 195.512L259.339 196.152L259.208 196.015L259.815 196.6671L259.685 196.524L260.272 197.187L260.144 197.038L260.71 197.713L260.583 197.558L261.128 198.243L261.004 198.082L261.526 198.778L261.405 198.611L261.905 199.317L261.786 199.144L262.264 199.86L262.148 199.681L262.604 200.406L262.491 200.221L262.923 200.9561L262.814 200.765L263.223 201.509L263.118 201.312L263.503 202.065L263.403 201.861L263.764 202.623L263.669 202.413L264.005 203.184L263.915 202.968L264.226 203.747L264.142 203.526L264.428 204.312L264.349 204.086L264.61 204.88L264.538 204.649L264.772 205.45L264.708 205.2141L264.916 206.022L264.858 205.782L265.04 206.598L264.99 206.354L265.144 207.175L265.102 206.928L265.229 207.756L265.195 207.506L265.295 208.34L265.269 208.088L265.34 208.928L265.323 208.674L265.366 209.52L265.358 209.265L265.372 210.116L265.372 209.861L265.358 210.712L265.366 210.457L265.323 211.302L265.34 211.048L265.269 211.889L265.295 211.636L265.195 212.471L265.229 212.22L265.102 213.049L265.144 212.801L264.99 213.623L265.04 213.379L264.858 214.194L264.916 213.954L264.708 214.763L264.772 214.527L264.538 215.328L264.61 215.097L264.349 215.8911L264.428 215.665L264.142 216.451L264.226 216.23L263.915 217.008L264.005 216.793L263.669 217.563L263.764 217.354L263.403 218.116L263.503 217.912L263.118 218.665L263.223 218.468L262.814 219.212L262.923 219.02L262.491 219.755L262.604 219.57L262.148 220.296L262.264 220.117L261.786 220.833L261.905 220.66L261.405 221.366L261.526 221.199L261.004 221.894L261.128 221.734L260.583 222.419L260.71 222.264L260.144 222.938L260.272 222.79L259.685 223.453L259.815 223.31L259.208 223.962L259.339 223.824L258.711 224.465L258.844 224.333L258.196 224.962L258.33 224.835L257.662 225.452L257.797 225.33L257.11 225.935L257.246 225.8181L256.54 226.41L256.676 226.298L255.951 226.877L256.088 226.77L255.346 227.336L255.483 227.234L254.722 227.787L254.86 227.689L254.082 228.228L254.22 228.135L253.424 228.66L253.563 228.571L252.75 229.082L252.889 228.997L252.06 229.493L252.199 229.412L251.354 229.894L251.493 229.817L250.632 230.284L250.771 230.21L249.895 230.662L250.034 230.592L249.142 231.0291L249.282 230.963L248.375 231.384L248.515 231.32L247.594 231.726L247.733 231.666L246.798 232.0551L246.938 231.998L245.989 232.371L246.129 232.317L245.167 232.673L245.307 232.623L244.331 232.962L244.471 232.915L243.483 233.236L243.623 233.192L242.623 233.496L242.763 233.455L241.751 233.741L241.891 233.703L240.867 233.972L241.007 233.936L239.972 234.186L240.112 234.1541L239.066 234.385L239.206 234.356L238.15 234.569L238.29 234.5421L237.223 234.735L237.364 234.711L236.287 234.886L236.427 234.864L235.341 235.019L235.482 235L234.386 235.135L234.527 235.119L233.422 235.234L233.563 235.221L232.45 235.316L232.591 235.3051L231.47 235.379L231.611 235.371L230.482 235.424L230.623 235.419L229.486 235.451L229.628 235.449L228.484 235.459L228.625 235.459L227.481 235.449L227.623 235.451L226.486 235.419L226.627 235.424L225.498 235.371L225.639 235.379L224.518 235.3051L224.659 235.316L223.546 235.221L223.687 235.234L222.582 235.119L222.723 235.135L221.627 235L221.768 235.019L220.682 234.864L220.822 234.886L219.745 234.711L219.886 234.735L218.819 234.5421L218.959 234.569L217.903 234.356L218.043 234.385L216.997 234.1541L217.137 234.186L216.102 233.936L216.242 233.972L215.218 233.703L215.358 233.741L214.346 233.455L214.486 233.496L213.486 233.192L213.626 233.236L212.638 232.915L212.778 232.962L211.803 232.623L211.942 232.673L210.98 232.317L211.12 232.371L210.171 231.998L210.311 232.0551L209.376 231.666L209.515 231.726L208.594 231.32L208.734 231.384L207.828 230.963L207.967 231.0291L207.075 230.592L207.215 230.662L206.338 230.21L206.477 230.284L205.616 229.817L205.755 229.894L204.91 229.412L205.049 229.493L204.22 228.997L204.359 229.082L203.546 228.571L203.685 228.66L202.889 228.135L203.027 228.228L202.249 227.689L202.387 227.787L201.626 227.234L201.764 227.336L201.021 226.77L201.158 226.877L200.433 226.298L200.569 226.41L199.863 225.8181L199.999 225.935L199.312 225.33L199.447 225.452L198.779 224.835L198.913 224.962L198.265 224.333L198.398 224.465L197.77 223.824L197.901 223.962L197.294 223.31L197.424 223.453L196.837 222.79L196.965 222.938L196.399 222.264L196.526 222.419L195.981 221.734L196.105 221.894L195.583 221.199L195.705 221.366L195.204 220.66L195.323 220.833L194.845 220.117L194.961 220.296L194.505 219.57L194.618 219.755L194.186 219.02L194.295 219.212L193.886 218.468L193.991 218.665L193.606 217.912L193.706 218.116L193.345 217.354L193.441 217.563L193.104 216.793L193.194 217.008L192.883 216.23L192.967 216.451L192.682 215.665L192.76 215.8911L192.499 215.097L192.571 215.328L192.337 214.527L192.401 214.763L192.193 213.954L192.251 214.194L192.069 213.379L192.119 213.623L191.965 212.801L192.007 213.049L191.88 212.22L191.914 212.471L191.814 211.636L191.84 211.889L191.769 211.048L191.786 211.302L191.743 210.457L191.751 210.712L191.737 209.861M176.756 211.094L176.812 212.195L176.905 213.288L177.035 214.374L177.2 215.451L177.401 216.518L177.636 217.576L177.906 218.622L178.209 219.657L178.544 220.679L178.911 221.689L179.31 222.686L179.739 223.668L180.197 224.637L180.684 225.59L181.2 226.5291L181.743 227.452L182.312 228.36L182.908 229.251L183.529 230.127L184.174 230.986L184.844 231.829L185.537 232.655L186.254 233.465L186.992 234.257L187.752 235.032L188.533 235.791L189.335 236.531L190.158 237.255L190.999 237.961L191.861 238.649L192.741 239.32L193.639 239.972L194.556 240.607L195.489 241.224L196.44 241.822L197.408 242.402L198.392 242.963L199.393 243.506L200.408 244.03L201.439 244.534L202.485 245.02L203.546 245.487L204.62 245.934L205.708 246.361L206.81 246.768L207.925 247.155L209.053 247.522L210.193 247.869L211.346 248.195L212.51 248.5L213.685 248.784L214.872 249.047L216.069 249.288L217.277 249.507L218.494 249.704L219.722 249.879L220.958 250.031L222.204 250.161L223.458 250.268L224.721 250.351L225.991 250.411L227.269 250.447L228.555 250.459L229.84 250.447L231.118 250.411L232.388 250.351L233.651 250.268L234.905 250.161L236.151 250.031L237.387 249.879L238.615 249.704L239.832 249.507L241.04 249.288L242.237 249.047L243.424 248.784L244.599 248.5L245.763 248.195L246.916 247.869L248.056 247.522L249.184 247.155L250.299 246.768L251.401 246.361L252.489 245.934L253.564 245.487L254.624 245.02L255.67 244.534L256.701 244.03L257.717 243.506L258.717 242.963L259.701 242.402L260.669 241.822L261.62 241.224L262.554 240.607L263.47 239.972L264.368 239.32L265.248 238.649L266.11 237.961L266.952 237.255L267.774 236.531L268.576 235.791L269.357 235.032L270.117 234.257L270.856 233.465L271.572 232.655L272.265 231.829L272.935 230.986L273.58 230.127L274.201 229.251L274.797 228.36L275.366 227.452L275.909 226.5291L276.425 225.59L276.912 224.637L277.37 223.668L277.799 222.686L278.198 221.689L278.565 220.679L278.9 219.657L279.203 218.622L279.473 217.576L279.708 216.518L279.909 215.451L280.074 214.374L280.204 213.288L280.297 212.195L280.353 211.094L280.372 209.988L280.353 208.882L280.297 207.782L280.204 206.689L280.074 205.603L279.909 204.526L279.708 203.459L279.473 202.401L279.203 201.355L278.9 200.32L278.565 199.297L278.198 198.288L277.799 197.291L277.37 196.309L276.912 195.34L276.425 194.387L275.909 193.448L275.366 192.525L274.797 191.617L274.201 190.725L273.58 189.85L272.935 188.9901L272.265 188.148L271.572 187.322L270.856 186.512L270.117 185.72L269.357 184.944L268.576 184.186L267.774 183.445L266.952 182.722L266.11 182.0161L265.248 181.328L264.368 180.657L263.47 180.004L262.554 179.37L261.62 178.7531L260.669 178.155L259.701 177.575L258.717 177.014L257.717 176.471L256.701 175.947L255.67 175.442L254.624 174.957L253.564 174.4901L252.489 174.043L251.401 173.616L250.299 173.209L249.184 172.821L248.056 172.454L246.916 172.108L245.763 171.782L244.599 171.4771L243.424 171.1931L242.237 170.9301L241.04 170.689L239.832 170.47L238.615 170.273L237.387 170.098L236.151 169.945L234.905 169.816L233.651 169.709L232.388 169.626L231.118 169.566L229.84 169.5291L228.555 169.517L227.269 169.5291L225.991 169.566L224.721 169.626L223.458 169.709L222.204 169.816L220.958 169.945L219.722 170.098L218.494 170.273L217.277 170.47L216.069 170.689L214.872 170.9301L213.685 171.1931L212.51 171.4771L211.346 171.782L210.193 172.108L209.053 172.454L207.925 172.821L206.81 173.209L205.708 173.616L204.62 174.043L203.546 174.4901L202.485 174.957L201.439 175.442L200.408 175.947L199.393 176.471L198.392 177.014L197.408 177.575L196.44 178.155L195.489 178.7531L194.556 179.37L193.639 180.004L192.741 180.657L191.861 181.328L190.999 182.0161L190.158 182.722L189.335 183.445L188.533 184.186L187.752 184.944L186.992 185.72L186.254 186.512L185.537 187.322L184.844 188.148L184.174 188.9901L183.529 189.85L182.908 190.725L182.312 191.617L181.743 192.525L181.2 193.448L180.684 194.387L180.197 195.34L179.739 196.309L179.31 197.291L178.911 198.288L178.544 199.297L178.209 200.32L177.906 201.355L177.636 202.401L177.401 203.459L177.2 204.526L177.035 205.603L176.905 206.689L176.812 207.782L176.756 208.882L176.737 209.988L176.756 211.094z" stroke="none" fill="#FFFFFF" fill-rule="nonzero" /></g><g clip-path="url(#6)"><g clip-path="url(#7)"></g></g><g clip-path="url(#8)"><path id="62" transform="matrix(1 0 0 -1 0 841)" d="M319.68 209.98C 319.642 228.198 339.483 242.959 363.958 242.959C 388.433 242.959 408.275 228.198 408.275 209.988C 408.275 191.7791 388.433 177.018 363.958 177.018C 339.483 177.018 319.642 191.7791 319.68 209.98" stroke="none" fill="#5B9BD5" fill-rule="evenodd" /><path id="63" transform="matrix(1 0 0 -1 0 841)" d="M327.14 209.861L327.14 210.116L327.155 209.265L327.146 209.52L327.189 208.674L327.172 208.928L327.244 208.088L327.218 208.34L327.318 207.506L327.283 207.756L327.411 206.928L327.368 207.175L327.523 206.354L327.473 206.598L327.654 205.782L327.597 206.022L327.805 205.2141L327.74 205.45L327.975 204.649L327.903 204.88L328.163 204.086L328.085 204.312L328.371 203.526L328.287 203.747L328.598 202.968L328.508 203.184L328.844 202.413L328.749 202.623L329.109 201.861L329.009 202.065L329.394 201.312L329.289 201.509L329.698 200.765L329.589 200.9561L330.021 200.221L329.909 200.406L330.364 199.681L330.248 199.86L330.726 199.144L330.607 199.317L331.108 198.611L330.986 198.778L331.509 198.082L331.385 198.243L331.929 197.558L331.803 197.713L332.369 197.038L332.24 197.187L332.827 196.524L332.697 196.6671L333.305 196.015L333.173 196.152L333.801 195.512L333.669 195.644L334.317 195.015L334.183 195.142L334.85 194.525L334.716 194.647L335.403 194.0421L335.267 194.159L335.973 193.567L335.837 193.678L336.561 193.099L336.424 193.2061L337.167 192.64L337.03 192.742L337.79 192.19L337.652 192.288L338.431 191.749L338.293 191.842L339.088 191.317L338.95 191.406L339.762 190.895L339.624 190.98L340.453 190.483L340.314 190.565L341.159 190.082L341.02 190.16L341.881 189.6931L341.742 189.7661L342.618 189.314L342.479 189.384L343.37 188.948L343.231 189.014L344.137 188.593L343.998 188.656L344.919 188.251L344.779 188.311L345.714 187.922L345.575 187.978L346.523 187.606L346.384 187.659L347.346 187.304L347.206 187.354L348.181 187.015L348.041 187.062L349.029 186.7401L348.889 186.785L349.89 186.48L349.75 186.522L350.762 186.235L350.622 186.273L351.646 186.005L351.505 186.04L352.541 185.79L352.4 185.823L353.446 185.591L353.306 185.621L354.363 185.408L354.222 185.435L355.289 185.241L355.149 185.265L356.226 185.091L356.085 185.113L357.172 184.958L357.031 184.976L358.127 184.841L357.986 184.857L359.09 184.742L358.949 184.756L360.062 184.661L359.921 184.672L361.043 184.598L360.902 184.606L362.031 184.552L361.889 184.558L363.026 184.525L362.885 184.528L364.029 184.517L363.887 184.517L365.031 184.528L364.89 184.525L366.027 184.558L365.885 184.552L367.015 184.606L366.873 184.598L367.995 184.672L367.854 184.661L368.967 184.756L368.826 184.742L369.93 184.857L369.789 184.841L370.885 184.976L370.744 184.958L371.831 185.113L371.69 185.091L372.767 185.265L372.627 185.241L373.694 185.435L373.553 185.408L374.61 185.621L374.47 185.591L375.516 185.823L375.375 185.79L376.411 186.04L376.27 186.005L377.294 186.273L377.154 186.235L378.167 186.522L378.027 186.48L379.027 186.785L378.887 186.7401L379.875 187.062L379.735 187.015L380.71 187.354L380.57 187.304L381.532 187.659L381.393 187.606L382.341 187.978L382.202 187.922L383.137 188.311L382.997 188.251L383.918 188.656L383.779 188.593L384.685 189.014L384.546 188.948L385.437 189.384L385.298 189.314L386.174 189.7661L386.035 189.6931L386.896 190.16L386.757 190.082L387.602 190.565L387.464 190.483L388.293 190.98L388.154 190.895L388.966 191.406L388.828 191.317L389.623 191.842L389.485 191.749L390.264 192.288L390.126 192.19L390.886 192.742L390.749 192.64L391.492 193.2061L391.355 193.099L392.08 193.678L391.943 193.567L392.649 194.159L392.513 194.0421L393.2 194.647L393.066 194.525L393.733 195.142L393.599 195.015L394.247 195.644L394.115 195.512L394.743 196.152L394.611 196.015L395.219 196.6671L395.089 196.524L395.676 197.187L395.547 197.038L396.113 197.713L395.987 197.558L396.531 198.243L396.407 198.082L396.93 198.778L396.808 198.611L397.309 199.317L397.19 199.144L397.668 199.86L397.552 199.681L398.007 200.406L397.895 200.221L398.327 200.9561L398.218 200.765L398.627 201.509L398.522 201.312L398.907 202.065L398.807 201.861L399.167 202.623L399.072 202.413L399.408 203.184L399.318 202.968L399.629 203.747L399.545 203.526L399.831 204.312L399.753 204.086L400.013 204.88L399.942 204.649L400.176 205.45L400.111 205.2141L400.319 206.022L400.262 205.782L400.443 206.598L400.393 206.354L400.548 207.175L400.505 206.928L400.633 207.756L400.599 207.506L400.698 208.34L400.672 208.088L400.744 208.928L400.727 208.674L400.77 209.52L400.761 209.265L400.776 210.116L400.776 209.861L400.761 210.712L400.77 210.457L400.727 211.302L400.744 211.048L400.672 211.889L400.698 211.636L400.599 212.471L400.633 212.22L400.505 213.049L400.548 212.801L400.393 213.623L400.443 213.379L400.262 214.194L400.319 213.954L400.111 214.763L400.176 214.527L399.942 215.328L400.013 215.097L399.753 215.8911L399.831 215.665L399.545 216.451L399.629 216.23L399.318 217.008L399.408 216.793L399.072 217.563L399.167 217.354L398.807 218.116L398.907 217.912L398.522 218.665L398.627 218.468L398.218 219.212L398.327 219.02L397.895 219.755L398.007 219.57L397.552 220.296L397.668 220.117L397.19 220.833L397.309 220.66L396.808 221.366L396.93 221.199L396.407 221.894L396.531 221.734L395.987 222.419L396.113 222.264L395.547 222.938L395.676 222.79L395.089 223.453L395.219 223.31L394.611 223.962L394.743 223.824L394.115 224.465L394.247 224.333L393.599 224.962L393.733 224.835L393.066 225.452L393.2 225.33L392.513 225.935L392.649 225.8181L391.943 226.41L392.08 226.298L391.355 226.877L391.492 226.77L390.749 227.336L390.886 227.234L390.126 227.787L390.264 227.689L389.485 228.228L389.623 228.135L388.828 228.66L388.966 228.571L388.154 229.082L388.293 228.997L387.464 229.493L387.602 229.412L386.757 229.894L386.896 229.817L386.035 230.284L386.174 230.21L385.298 230.662L385.437 230.592L384.546 231.0291L384.685 230.963L383.779 231.384L383.918 231.32L382.997 231.726L383.137 231.666L382.202 232.0551L382.341 231.998L381.393 232.371L381.532 232.317L380.57 232.673L380.71 232.623L379.735 232.962L379.875 232.915L378.887 233.236L379.027 233.192L378.027 233.496L378.167 233.455L377.154 233.741L377.294 233.703L376.27 233.972L376.411 233.936L375.375 234.186L375.516 234.1541L374.47 234.385L374.61 234.356L373.553 234.569L373.694 234.5421L372.627 234.735L372.767 234.711L371.69 234.886L371.831 234.864L370.744 235.019L370.885 235L369.789 235.135L369.93 235.119L368.826 235.234L368.967 235.221L367.854 235.316L367.995 235.3051L366.873 235.379L367.015 235.371L365.885 235.424L366.027 235.419L364.89 235.451L365.031 235.449L363.887 235.459L364.029 235.459L362.885 235.449L363.026 235.451L361.889 235.419L362.031 235.424L360.902 235.371L361.043 235.379L359.921 235.3051L360.062 235.316L358.949 235.221L359.09 235.234L357.986 235.119L358.127 235.135L357.031 235L357.172 235.019L356.085 234.864L356.226 234.886L355.149 234.711L355.289 234.735L354.222 234.5421L354.363 234.569L353.306 234.356L353.446 234.385L352.4 234.1541L352.541 234.186L351.505 233.936L351.646 233.972L350.622 233.703L350.762 233.741L349.75 233.455L349.89 233.496L348.889 233.192L349.029 233.236L348.041 232.915L348.181 232.962L347.206 232.623L347.346 232.673L346.384 232.317L346.523 232.371L345.575 231.998L345.714 232.0551L344.779 231.666L344.919 231.726L343.998 231.32L344.137 231.384L343.231 230.963L343.37 231.0291L342.479 230.592L342.618 230.662L341.742 230.21L341.881 230.284L341.02 229.817L341.159 229.894L340.314 229.412L340.453 229.493L339.624 228.997L339.762 229.082L338.95 228.571L339.088 228.66L338.293 228.135L338.431 228.228L337.652 227.689L337.79 227.787L337.03 227.234L337.167 227.336L336.424 226.77L336.561 226.877L335.837 226.298L335.973 226.41L335.267 225.8181L335.403 225.935L334.716 225.33L334.85 225.452L334.183 224.835L334.317 224.962L333.669 224.333L333.801 224.465L333.173 223.824L333.305 223.962L332.697 223.31L332.827 223.453L332.24 222.79L332.369 222.938L331.803 222.264L331.929 222.419L331.385 221.734L331.509 221.894L330.986 221.199L331.108 221.366L330.607 220.66L330.726 220.833L330.248 220.117L330.364 220.296L329.909 219.57L330.021 219.755L329.589 219.02L329.698 219.212L329.289 218.468L329.394 218.665L329.009 217.912L329.109 218.116L328.749 217.354L328.844 217.563L328.508 216.793L328.598 217.008L328.287 216.23L328.371 216.451L328.085 215.665L328.163 215.8911L327.903 215.097L327.975 215.328L327.74 214.527L327.805 214.763L327.597 213.954L327.654 214.194L327.473 213.379L327.523 213.623L327.368 212.801L327.411 213.049L327.283 212.22L327.318 212.471L327.218 211.636L327.244 211.889L327.172 211.048L327.189 211.302L327.146 210.457L327.155 210.712L327.14 209.861M312.159 211.094L312.215 212.195L312.309 213.288L312.438 214.374L312.604 215.451L312.804 216.518L313.04 217.576L313.309 218.622L313.612 219.657L313.948 220.679L314.315 221.689L314.713 222.686L315.142 223.668L315.6 224.637L316.088 225.59L316.603 226.5291L317.146 227.452L317.716 228.36L318.311 229.251L318.932 230.127L319.578 230.986L320.248 231.829L320.941 232.655L321.657 233.465L322.395 234.257L323.155 235.032L323.937 235.791L324.739 236.531L325.561 237.255L326.403 237.961L327.264 238.649L328.144 239.32L329.043 239.972L329.959 240.607L330.893 241.224L331.844 241.822L332.812 242.402L333.796 242.963L334.796 243.506L335.812 244.03L336.843 244.534L337.889 245.02L338.949 245.487L340.024 245.934L341.112 246.361L342.214 246.768L343.329 247.155L344.457 247.522L345.597 247.869L346.749 248.195L347.913 248.5L349.089 248.784L350.275 249.047L351.473 249.288L352.68 249.507L353.898 249.704L355.125 249.879L356.362 250.031L357.608 250.161L358.862 250.268L360.124 250.351L361.395 250.411L362.673 250.447L363.958 250.459L365.243 250.447L366.521 250.411L367.792 250.351L369.054 250.268L370.308 250.161L371.554 250.031L372.791 249.879L374.018 249.704L375.236 249.507L376.444 249.288L377.641 249.047L378.827 248.784L380.003 248.5L381.167 248.195L382.319 247.869L383.459 247.522L384.587 247.155L385.702 246.768L386.804 246.361L387.892 245.934L388.967 245.487L390.027 245.02L391.073 244.534L392.104 244.03L393.12 243.506L394.12 242.963L395.104 242.402L396.072 241.822L397.023 241.224L397.957 240.607L398.873 239.972L399.772 239.32L400.652 238.649L401.513 237.961L402.355 237.255L403.177 236.531L403.979 235.791L404.761 235.032L405.521 234.257L406.259 233.465L406.975 232.655L407.668 231.829L408.338 230.986L408.984 230.127L409.605 229.251L410.2 228.36L410.77 227.452L411.313 226.5291L411.828 225.59L412.316 224.637L412.774 223.668L413.203 222.686L413.601 221.689L413.968 220.679L414.304 219.657L414.607 218.622L414.876 217.576L415.112 216.518L415.312 215.451L415.478 214.374L415.607 213.288L415.701 212.195L415.757 211.094L415.776 209.988L415.757 208.882L415.701 207.782L415.607 206.689L415.478 205.603L415.312 204.526L415.112 203.459L414.876 202.401L414.607 201.355L414.304 200.32L413.968 199.297L413.601 198.288L413.203 197.291L412.774 196.309L412.316 195.34L411.828 194.387L411.313 193.448L410.77 192.525L410.2 191.617L409.605 190.725L408.984 189.85L408.338 188.9901L407.668 188.148L406.975 187.322L406.259 186.512L405.521 185.72L404.761 184.944L403.979 184.186L403.177 183.445L402.355 182.722L401.513 182.0161L400.652 181.328L399.772 180.657L398.873 180.004L397.957 179.37L397.023 178.7531L396.072 178.155L395.104 177.575L394.12 177.014L393.12 176.471L392.104 175.947L391.073 175.442L390.027 174.957L388.967 174.4901L387.892 174.043L386.804 173.616L385.702 173.209L384.587 172.821L383.459 172.454L382.319 172.108L381.167 171.782L380.003 171.4771L378.827 171.1931L377.641 170.9301L376.444 170.689L375.236 170.47L374.018 170.273L372.791 170.098L371.554 169.945L370.308 169.816L369.054 169.709L367.792 169.626L366.521 169.566L365.243 169.5291L363.958 169.517L362.673 169.5291L361.395 169.566L360.124 169.626L358.862 169.709L357.608 169.816L356.362 169.945L355.125 170.098L353.898 170.273L352.68 170.47L351.473 170.689L350.275 170.9301L349.089 171.1931L347.913 171.4771L346.749 171.782L345.597 172.108L344.457 172.454L343.329 172.821L342.214 173.209L341.112 173.616L340.024 174.043L338.949 174.4901L337.889 174.957L336.843 175.442L335.812 175.947L334.796 176.471L333.796 177.014L332.812 177.575L331.844 178.155L330.893 178.7531L329.959 179.37L329.043 180.004L328.144 180.657L327.264 181.328L326.403 182.0161L325.561 182.722L324.739 183.445L323.937 184.186L323.155 184.944L322.395 185.72L321.657 186.512L320.941 187.322L320.248 188.148L319.578 188.9901L318.932 189.85L318.311 190.725L317.716 191.617L317.146 192.525L316.603 193.448L316.088 194.387L315.6 195.34L315.142 196.309L314.713 197.291L314.315 198.288L313.948 199.297L313.612 200.32L313.309 201.355L313.04 202.401L312.804 203.459L312.604 204.526L312.438 205.603L312.309 206.689L312.215 207.782L312.159 208.882L312.14 209.988L312.159 211.094z" stroke="none" fill="#FFFFFF" fill-rule="nonzero" /></g><g clip-path="url(#9)"><g clip-path="url(#10)"></g></g><g clip-path="url(#11)"><g clip-path="url(#12)"></g></g><g clip-path="url(#13)"><g transform="matrix(0.266485 0 0 0.2664034 193.8 122.58)"><g transform="matrix(1 0 0 1 0 0)"><image x="0" y="0" xlink:href="img_07.png" width="734" height="709" /></g></g></g></g></g></svg>